solid Mesh
  facet normal 0 0 1
    outer loop
      vertex 0.015 9.18485e-19 -0.015
      vertex 0.0149121 0.00162179 -0.015
      vertex 0 9.18485e-19 -0.015
    endloop
  endfacet
  facet normal 0 0 1
    outer loop
      vertex 0.0142148 -0.00478952 -0.015
      vertex 0.0146493 -0.00322456 -0.015
      vertex 0 9.18485e-19 -0.015
    endloop
  endfacet
  facet normal 0 0 1
    outer loop
      vertex 0.0146493 -0.00322456 -0.015
      vertex 0.0149121 -0.00162179 -0.015
      vertex 0 9.18485e-19 -0.015
    endloop
  endfacet
  facet normal 0 0 1
    outer loop
      vertex 0 9.18485e-19 -0.015
      vertex 0.0149121 -0.00162179 -0.015
      vertex 0.015 9.18485e-19 -0.015
    endloop
  endfacet
  facet normal 0 0 1
    outer loop
      vertex 0.0119414 -0.00907761 -0.015
      vertex 0.0128529 -0.00773331 -0.015
      vertex 0 9.18485e-19 -0.015
    endloop
  endfacet
  facet normal 0 0 1
    outer loop
      vertex 0.0128529 -0.00773331 -0.015
      vertex 0.0136136 -0.00629834 -0.015
      vertex 0 9.18485e-19 -0.015
    endloop
  endfacet
  facet normal 0 0 1
    outer loop
      vertex 0 9.18485e-19 -0.015
      vertex 0.0136136 -0.00629834 -0.015
      vertex 0.0142148 -0.00478952 -0.015
    endloop
  endfacet
  facet normal 0 0 1
    outer loop
      vertex 0.00841781 -0.0124153 -0.015
      vertex 0.00971079 -0.0114324 -0.015
      vertex 0 9.18485e-19 -0.015
    endloop
  endfacet
  facet normal 0 0 1
    outer loop
      vertex 0.00971079 -0.0114324 -0.015
      vertex 0.0108899 -0.0103155 -0.015
      vertex 0 9.18485e-19 -0.015
    endloop
  endfacet
  facet normal 0 0 1
    outer loop
      vertex 0 9.18485e-19 -0.015
      vertex 0.0108899 -0.0103155 -0.015
      vertex 0.0119414 -0.00907761 -0.015
    endloop
  endfacet
  facet normal 0 0 1
    outer loop
      vertex 0.00401293 -0.0144532 -0.015
      vertex 0.00555207 -0.0139347 -0.015
      vertex 0 9.18485e-19 -0.015
    endloop
  endfacet
  facet normal 0 0 1
    outer loop
      vertex 0.00555207 -0.0139347 -0.015
      vertex 0.00702613 -0.0132527 -0.015
      vertex 0 9.18485e-19 -0.015
    endloop
  endfacet
  facet normal 0 0 1
    outer loop
      vertex 0 9.18485e-19 -0.015
      vertex 0.00702613 -0.0132527 -0.015
      vertex 0.00841781 -0.0124153 -0.015
    endloop
  endfacet
  facet normal 0 0 1
    outer loop
      vertex -0.000812084 -0.014978 -0.015
      vertex 0.000812084 -0.014978 -0.015
      vertex 0 9.18485e-19 -0.015
    endloop
  endfacet
  facet normal 0 0 1
    outer loop
      vertex 0.000812084 -0.014978 -0.015
      vertex 0.00242673 -0.0148024 -0.015
      vertex 0 9.18485e-19 -0.015
    endloop
  endfacet
  facet normal 0 0 1
    outer loop
      vertex 0 9.18485e-19 -0.015
      vertex 0.00242673 -0.0148024 -0.015
      vertex 0.00401293 -0.0144532 -0.015
    endloop
  endfacet
  facet normal 0 0 1
    outer loop
      vertex -0.00555207 -0.0139347 -0.015
      vertex -0.00401293 -0.0144532 -0.015
      vertex 0 9.18485e-19 -0.015
    endloop
  endfacet
  facet normal 0 0 1
    outer loop
      vertex -0.00401293 -0.0144532 -0.015
      vertex -0.00242673 -0.0148024 -0.015
      vertex 0 9.18485e-19 -0.015
    endloop
  endfacet
  facet normal 0 0 1
    outer loop
      vertex 0 9.18485e-19 -0.015
      vertex -0.00242673 -0.0148024 -0.015
      vertex -0.000812084 -0.014978 -0.015
    endloop
  endfacet
  facet normal 0 0 1
    outer loop
      vertex -0.00971079 -0.0114324 -0.015
      vertex -0.00841781 -0.0124153 -0.015
      vertex 0 9.18485e-19 -0.015
    endloop
  endfacet
  facet normal 0 0 1
    outer loop
      vertex -0.00841781 -0.0124153 -0.015
      vertex -0.00702613 -0.0132527 -0.015
      vertex 0 9.18485e-19 -0.015
    endloop
  endfacet
  facet normal 0 0 1
    outer loop
      vertex 0 9.18485e-19 -0.015
      vertex -0.00702613 -0.0132527 -0.015
      vertex -0.00555207 -0.0139347 -0.015
    endloop
  endfacet
  facet normal 0 0 1
    outer loop
      vertex -0.0128529 -0.00773331 -0.015
      vertex -0.0119414 -0.00907761 -0.015
      vertex 0 9.18485e-19 -0.015
    endloop
  endfacet
  facet normal 0 0 1
    outer loop
      vertex -0.0119414 -0.00907761 -0.015
      vertex -0.0108899 -0.0103155 -0.015
      vertex 0 9.18485e-19 -0.015
    endloop
  endfacet
  facet normal 0 0 1
    outer loop
      vertex 0 9.18485e-19 -0.015
      vertex -0.0108899 -0.0103155 -0.015
      vertex -0.00971079 -0.0114324 -0.015
    endloop
  endfacet
  facet normal 0 0 1
    outer loop
      vertex -0.0146493 -0.00322456 -0.015
      vertex -0.0142148 -0.00478952 -0.015
      vertex 0 9.18485e-19 -0.015
    endloop
  endfacet
  facet normal 0 0 1
    outer loop
      vertex -0.0142148 -0.00478952 -0.015
      vertex -0.0136136 -0.00629834 -0.015
      vertex 0 9.18485e-19 -0.015
    endloop
  endfacet
  facet normal 0 0 1
    outer loop
      vertex 0 9.18485e-19 -0.015
      vertex -0.0136136 -0.00629834 -0.015
      vertex -0.0128529 -0.00773331 -0.015
    endloop
  endfacet
  facet normal 0 0 1
    outer loop
      vertex -0.0149121 0.00162179 -0.015
      vertex -0.015 2.75546e-18 -0.015
      vertex 0 9.18485e-19 -0.015
    endloop
  endfacet
  facet normal 0 0 1
    outer loop
      vertex -0.015 2.75546e-18 -0.015
      vertex -0.0149121 -0.00162179 -0.015
      vertex 0 9.18485e-19 -0.015
    endloop
  endfacet
  facet normal 0 0 1
    outer loop
      vertex 0 9.18485e-19 -0.015
      vertex -0.0149121 -0.00162179 -0.015
      vertex -0.0146493 -0.00322456 -0.015
    endloop
  endfacet
  facet normal 0 0 1
    outer loop
      vertex -0.0136136 0.00629834 -0.015
      vertex -0.0142148 0.00478952 -0.015
      vertex 0 9.18485e-19 -0.015
    endloop
  endfacet
  facet normal 0 0 1
    outer loop
      vertex -0.0142148 0.00478952 -0.015
      vertex -0.0146493 0.00322456 -0.015
      vertex 0 9.18485e-19 -0.015
    endloop
  endfacet
  facet normal 0 0 1
    outer loop
      vertex 0 9.18485e-19 -0.015
      vertex -0.0146493 0.00322456 -0.015
      vertex -0.0149121 0.00162179 -0.015
    endloop
  endfacet
  facet normal 0 0 1
    outer loop
      vertex -0.0108899 0.0103155 -0.015
      vertex -0.0119414 0.00907761 -0.015
      vertex 0 9.18485e-19 -0.015
    endloop
  endfacet
  facet normal 0 0 1
    outer loop
      vertex -0.0119414 0.00907761 -0.015
      vertex -0.0128529 0.00773331 -0.015
      vertex 0 9.18485e-19 -0.015
    endloop
  endfacet
  facet normal 0 0 1
    outer loop
      vertex 0 9.18485e-19 -0.015
      vertex -0.0128529 0.00773331 -0.015
      vertex -0.0136136 0.00629834 -0.015
    endloop
  endfacet
  facet normal 0 0 1
    outer loop
      vertex -0.00702613 0.0132527 -0.015
      vertex -0.00841781 0.0124153 -0.015
      vertex 0 9.18485e-19 -0.015
    endloop
  endfacet
  facet normal 0 0 1
    outer loop
      vertex -0.00841781 0.0124153 -0.015
      vertex -0.00971079 0.0114324 -0.015
      vertex 0 9.18485e-19 -0.015
    endloop
  endfacet
  facet normal 0 0 1
    outer loop
      vertex 0 9.18485e-19 -0.015
      vertex -0.00971079 0.0114324 -0.015
      vertex -0.0108899 0.0103155 -0.015
    endloop
  endfacet
  facet normal 0 0 1
    outer loop
      vertex -0.00242673 0.0148024 -0.015
      vertex -0.00401293 0.0144532 -0.015
      vertex 0 9.18485e-19 -0.015
    endloop
  endfacet
  facet normal 0 0 1
    outer loop
      vertex -0.00401293 0.0144532 -0.015
      vertex -0.00555207 0.0139347 -0.015
      vertex 0 9.18485e-19 -0.015
    endloop
  endfacet
  facet normal 0 0 1
    outer loop
      vertex 0 9.18485e-19 -0.015
      vertex -0.00555207 0.0139347 -0.015
      vertex -0.00702613 0.0132527 -0.015
    endloop
  endfacet
  facet normal 0 0 1
    outer loop
      vertex 0.00242673 0.0148024 -0.015
      vertex 0.000812084 0.014978 -0.015
      vertex 0 9.18485e-19 -0.015
    endloop
  endfacet
  facet normal 0 0 1
    outer loop
      vertex 0.000812084 0.014978 -0.015
      vertex -0.000812084 0.014978 -0.015
      vertex 0 9.18485e-19 -0.015
    endloop
  endfacet
  facet normal 0 0 1
    outer loop
      vertex 0 9.18485e-19 -0.015
      vertex -0.000812084 0.014978 -0.015
      vertex -0.00242673 0.0148024 -0.015
    endloop
  endfacet
  facet normal 0 0 1
    outer loop
      vertex 0.00702613 0.0132527 -0.015
      vertex 0.00555207 0.0139347 -0.015
      vertex 0 9.18485e-19 -0.015
    endloop
  endfacet
  facet normal 0 0 1
    outer loop
      vertex 0.00555207 0.0139347 -0.015
      vertex 0.00401293 0.0144532 -0.015
      vertex 0 9.18485e-19 -0.015
    endloop
  endfacet
  facet normal 0 0 1
    outer loop
      vertex 0 9.18485e-19 -0.015
      vertex 0.00401293 0.0144532 -0.015
      vertex 0.00242673 0.0148024 -0.015
    endloop
  endfacet
  facet normal 0 0 1
    outer loop
      vertex 0.0108899 0.0103155 -0.015
      vertex 0.00971079 0.0114324 -0.015
      vertex 0 9.18485e-19 -0.015
    endloop
  endfacet
  facet normal 0 0 1
    outer loop
      vertex 0.00971079 0.0114324 -0.015
      vertex 0.00841781 0.0124153 -0.015
      vertex 0 9.18485e-19 -0.015
    endloop
  endfacet
  facet normal 0 0 1
    outer loop
      vertex 0 9.18485e-19 -0.015
      vertex 0.00841781 0.0124153 -0.015
      vertex 0.00702613 0.0132527 -0.015
    endloop
  endfacet
  facet normal 0 0 1
    outer loop
      vertex 0.0136136 0.00629834 -0.015
      vertex 0.0128529 0.00773331 -0.015
      vertex 0 9.18485e-19 -0.015
    endloop
  endfacet
  facet normal 0 0 1
    outer loop
      vertex 0.0128529 0.00773331 -0.015
      vertex 0.0119414 0.00907761 -0.015
      vertex 0 9.18485e-19 -0.015
    endloop
  endfacet
  facet normal 0 0 1
    outer loop
      vertex 0 9.18485e-19 -0.015
      vertex 0.0119414 0.00907761 -0.015
      vertex 0.0108899 0.0103155 -0.015
    endloop
  endfacet
  facet normal 0 0 1
    outer loop
      vertex 0.0149121 0.00162179 -0.015
      vertex 0.0146493 0.00322456 -0.015
      vertex 0 9.18485e-19 -0.015
    endloop
  endfacet
  facet normal 0 0 1
    outer loop
      vertex 0.0146493 0.00322456 -0.015
      vertex 0.0142148 0.00478952 -0.015
      vertex 0 9.18485e-19 -0.015
    endloop
  endfacet
  facet normal 0 0 1
    outer loop
      vertex 0 9.18485e-19 -0.015
      vertex 0.0142148 0.00478952 -0.015
      vertex 0.0136136 0.00629834 -0.015
    endloop
  endfacet
  facet normal -0.998533 -0.0541384 -4.42003e-18
    outer loop
      vertex 0.015 9.18485e-19 -0.015
      vertex 0.015 -2.75546e-18 0.03
      vertex 0.0149121 0.00162179 -0.015
    endloop
  endfacet
  facet normal -0.998533 -0.0541384 0
    outer loop
      vertex 0.015 -2.75546e-18 0.03
      vertex 0.0149121 0.00162179 0.03
      vertex 0.0149121 0.00162179 -0.015
    endloop
  endfacet
  facet normal -0.986826 -0.161782 0
    outer loop
      vertex 0.0149121 0.00162179 -0.015
      vertex 0.0149121 0.00162179 0.03
      vertex 0.0146493 0.00322456 -0.015
    endloop
  endfacet
  facet normal -0.986826 -0.161782 0
    outer loop
      vertex 0.0149121 0.00162179 0.03
      vertex 0.0146493 0.00322456 0.03
      vertex 0.0146493 0.00322456 -0.015
    endloop
  endfacet
  facet normal -0.96355 -0.267528 0
    outer loop
      vertex 0.0146493 0.00322456 -0.015
      vertex 0.0146493 0.00322456 0.03
      vertex 0.0142148 0.00478952 -0.015
    endloop
  endfacet
  facet normal -0.96355 -0.267528 0
    outer loop
      vertex 0.0146493 0.00322456 0.03
      vertex 0.0142148 0.00478952 0.03
      vertex 0.0142148 0.00478952 -0.015
    endloop
  endfacet
  facet normal -0.928977 -0.370138 0
    outer loop
      vertex 0.0142148 0.00478952 -0.015
      vertex 0.0142148 0.00478952 0.03
      vertex 0.0136136 0.00629834 -0.015
    endloop
  endfacet
  facet normal -0.928977 -0.370138 0
    outer loop
      vertex 0.0142148 0.00478952 0.03
      vertex 0.0136136 0.00629834 0.03
      vertex 0.0136136 0.00629834 -0.015
    endloop
  endfacet
  facet normal -0.883512 -0.468408 0
    outer loop
      vertex 0.0136136 0.00629834 -0.015
      vertex 0.0136136 0.00629834 0.03
      vertex 0.0128529 0.00773331 -0.015
    endloop
  endfacet
  facet normal -0.883512 -0.468408 0
    outer loop
      vertex 0.0136136 0.00629834 0.03
      vertex 0.0128529 0.00773331 0.03
      vertex 0.0128529 0.00773331 -0.015
    endloop
  endfacet
  facet normal -0.827689 -0.561187 0
    outer loop
      vertex 0.0128529 0.00773331 -0.015
      vertex 0.0128529 0.00773331 0.03
      vertex 0.0119414 0.00907761 -0.015
    endloop
  endfacet
  facet normal -0.827689 -0.561187 0
    outer loop
      vertex 0.0128529 0.00773331 0.03
      vertex 0.0119414 0.00907761 0.03
      vertex 0.0119414 0.00907761 -0.015
    endloop
  endfacet
  facet normal -0.762162 -0.647386 0
    outer loop
      vertex 0.0119414 0.00907761 -0.015
      vertex 0.0119414 0.00907761 0.03
      vertex 0.0108899 0.0103155 -0.015
    endloop
  endfacet
  facet normal -0.762162 -0.647386 0
    outer loop
      vertex 0.0119414 0.00907761 0.03
      vertex 0.0108899 0.0103155 0.03
      vertex 0.0108899 0.0103155 -0.015
    endloop
  endfacet
  facet normal -0.687699 -0.725996 0
    outer loop
      vertex 0.0108899 0.0103155 -0.015
      vertex 0.0108899 0.0103155 0.03
      vertex 0.00971079 0.0114324 -0.015
    endloop
  endfacet
  facet normal -0.687699 -0.725996 0
    outer loop
      vertex 0.0108899 0.0103155 0.03
      vertex 0.00971079 0.0114324 0.03
      vertex 0.00971079 0.0114324 -0.015
    endloop
  endfacet
  facet normal -0.605174 -0.796093 0
    outer loop
      vertex 0.00971079 0.0114324 -0.015
      vertex 0.00971079 0.0114324 0.03
      vertex 0.00841781 0.0124153 -0.015
    endloop
  endfacet
  facet normal -0.605174 -0.796093 0
    outer loop
      vertex 0.00971079 0.0114324 0.03
      vertex 0.00841781 0.0124153 0.03
      vertex 0.00841781 0.0124153 -0.015
    endloop
  endfacet
  facet normal -0.515554 -0.856857 0
    outer loop
      vertex 0.00841781 0.0124153 -0.015
      vertex 0.00841781 0.0124153 0.03
      vertex 0.00702613 0.0132527 -0.015
    endloop
  endfacet
  facet normal -0.515554 -0.856857 0
    outer loop
      vertex 0.00841781 0.0124153 0.03
      vertex 0.00702613 0.0132527 0.03
      vertex 0.00702613 0.0132527 -0.015
    endloop
  endfacet
  facet normal -0.419889 -0.907576 0
    outer loop
      vertex 0.00702613 0.0132527 -0.015
      vertex 0.00702613 0.0132527 0.03
      vertex 0.00555207 0.0139347 -0.015
    endloop
  endfacet
  facet normal -0.419889 -0.907576 0
    outer loop
      vertex 0.00702613 0.0132527 0.03
      vertex 0.00555207 0.0139347 0.03
      vertex 0.00555207 0.0139347 -0.015
    endloop
  endfacet
  facet normal -0.319302 -0.947653 0
    outer loop
      vertex 0.00555207 0.0139347 -0.015
      vertex 0.00555207 0.0139347 0.03
      vertex 0.00401293 0.0144532 -0.015
    endloop
  endfacet
  facet normal -0.319302 -0.947653 0
    outer loop
      vertex 0.00555207 0.0139347 0.03
      vertex 0.00401293 0.0144532 0.03
      vertex 0.00401293 0.0144532 -0.015
    endloop
  endfacet
  facet normal -0.214971 -0.976621 0
    outer loop
      vertex 0.00401293 0.0144532 -0.015
      vertex 0.00401293 0.0144532 0.03
      vertex 0.00242673 0.0148024 -0.015
    endloop
  endfacet
  facet normal -0.214971 -0.976621 0
    outer loop
      vertex 0.00401293 0.0144532 0.03
      vertex 0.00242673 0.0148024 0.03
      vertex 0.00242673 0.0148024 -0.015
    endloop
  endfacet
  facet normal -0.108119 -0.994138 0
    outer loop
      vertex 0.00242673 0.0148024 -0.015
      vertex 0.00242673 0.0148024 0.03
      vertex 0.000812084 0.014978 -0.015
    endloop
  endfacet
  facet normal -0.108119 -0.994138 0
    outer loop
      vertex 0.00242673 0.0148024 0.03
      vertex 0.000812084 0.014978 0.03
      vertex 0.000812084 0.014978 -0.015
    endloop
  endfacet
  facet normal 0 -1 0
    outer loop
      vertex 0.000812084 0.014978 -0.015
      vertex 0.000812084 0.014978 0.03
      vertex -0.000812084 0.014978 -0.015
    endloop
  endfacet
  facet normal 0 -1 0
    outer loop
      vertex 0.000812084 0.014978 0.03
      vertex -0.000812084 0.014978 0.03
      vertex -0.000812084 0.014978 -0.015
    endloop
  endfacet
  facet normal 0.108119 -0.994138 0
    outer loop
      vertex -0.000812084 0.014978 -0.015
      vertex -0.000812084 0.014978 0.03
      vertex -0.00242673 0.0148024 -0.015
    endloop
  endfacet
  facet normal 0.108119 -0.994138 0
    outer loop
      vertex -0.000812084 0.014978 0.03
      vertex -0.00242673 0.0148024 0.03
      vertex -0.00242673 0.0148024 -0.015
    endloop
  endfacet
  facet normal 0.214971 -0.976621 0
    outer loop
      vertex -0.00242673 0.0148024 -0.015
      vertex -0.00242673 0.0148024 0.03
      vertex -0.00401293 0.0144532 -0.015
    endloop
  endfacet
  facet normal 0.214971 -0.976621 0
    outer loop
      vertex -0.00242673 0.0148024 0.03
      vertex -0.00401293 0.0144532 0.03
      vertex -0.00401293 0.0144532 -0.015
    endloop
  endfacet
  facet normal 0.319302 -0.947653 0
    outer loop
      vertex -0.00401293 0.0144532 -0.015
      vertex -0.00401293 0.0144532 0.03
      vertex -0.00555207 0.0139347 -0.015
    endloop
  endfacet
  facet normal 0.319302 -0.947653 0
    outer loop
      vertex -0.00401293 0.0144532 0.03
      vertex -0.00555207 0.0139347 0.03
      vertex -0.00555207 0.0139347 -0.015
    endloop
  endfacet
  facet normal 0.419889 -0.907576 0
    outer loop
      vertex -0.00555207 0.0139347 -0.015
      vertex -0.00555207 0.0139347 0.03
      vertex -0.00702613 0.0132527 -0.015
    endloop
  endfacet
  facet normal 0.419889 -0.907576 0
    outer loop
      vertex -0.00555207 0.0139347 0.03
      vertex -0.00702613 0.0132527 0.03
      vertex -0.00702613 0.0132527 -0.015
    endloop
  endfacet
  facet normal 0.515554 -0.856857 0
    outer loop
      vertex -0.00702613 0.0132527 -0.015
      vertex -0.00702613 0.0132527 0.03
      vertex -0.00841781 0.0124153 -0.015
    endloop
  endfacet
  facet normal 0.515554 -0.856857 0
    outer loop
      vertex -0.00702613 0.0132527 0.03
      vertex -0.00841781 0.0124153 0.03
      vertex -0.00841781 0.0124153 -0.015
    endloop
  endfacet
  facet normal 0.605174 -0.796093 0
    outer loop
      vertex -0.00841781 0.0124153 -0.015
      vertex -0.00841781 0.0124153 0.03
      vertex -0.00971079 0.0114324 -0.015
    endloop
  endfacet
  facet normal 0.605174 -0.796093 0
    outer loop
      vertex -0.00841781 0.0124153 0.03
      vertex -0.00971079 0.0114324 0.03
      vertex -0.00971079 0.0114324 -0.015
    endloop
  endfacet
  facet normal 0.687699 -0.725996 0
    outer loop
      vertex -0.00971079 0.0114324 -0.015
      vertex -0.00971079 0.0114324 0.03
      vertex -0.0108899 0.0103155 -0.015
    endloop
  endfacet
  facet normal 0.687699 -0.725996 0
    outer loop
      vertex -0.00971079 0.0114324 0.03
      vertex -0.0108899 0.0103155 0.03
      vertex -0.0108899 0.0103155 -0.015
    endloop
  endfacet
  facet normal 0.762162 -0.647386 0
    outer loop
      vertex -0.0108899 0.0103155 -0.015
      vertex -0.0108899 0.0103155 0.03
      vertex -0.0119414 0.00907761 -0.015
    endloop
  endfacet
  facet normal 0.762162 -0.647386 0
    outer loop
      vertex -0.0108899 0.0103155 0.03
      vertex -0.0119414 0.00907761 0.03
      vertex -0.0119414 0.00907761 -0.015
    endloop
  endfacet
  facet normal 0.827689 -0.561187 0
    outer loop
      vertex -0.0119414 0.00907761 -0.015
      vertex -0.0119414 0.00907761 0.03
      vertex -0.0128529 0.00773331 -0.015
    endloop
  endfacet
  facet normal 0.827689 -0.561187 0
    outer loop
      vertex -0.0119414 0.00907761 0.03
      vertex -0.0128529 0.00773331 0.03
      vertex -0.0128529 0.00773331 -0.015
    endloop
  endfacet
  facet normal 0.883512 -0.468408 0
    outer loop
      vertex -0.0128529 0.00773331 -0.015
      vertex -0.0128529 0.00773331 0.03
      vertex -0.0136136 0.00629834 -0.015
    endloop
  endfacet
  facet normal 0.883512 -0.468408 0
    outer loop
      vertex -0.0128529 0.00773331 0.03
      vertex -0.0136136 0.00629834 0.03
      vertex -0.0136136 0.00629834 -0.015
    endloop
  endfacet
  facet normal 0.928977 -0.370138 0
    outer loop
      vertex -0.0136136 0.00629834 -0.015
      vertex -0.0136136 0.00629834 0.03
      vertex -0.0142148 0.00478952 -0.015
    endloop
  endfacet
  facet normal 0.928977 -0.370138 0
    outer loop
      vertex -0.0136136 0.00629834 0.03
      vertex -0.0142148 0.00478952 0.03
      vertex -0.0142148 0.00478952 -0.015
    endloop
  endfacet
  facet normal 0.96355 -0.267528 0
    outer loop
      vertex -0.0142148 0.00478952 -0.015
      vertex -0.0142148 0.00478952 0.03
      vertex -0.0146493 0.00322456 -0.015
    endloop
  endfacet
  facet normal 0.96355 -0.267528 0
    outer loop
      vertex -0.0142148 0.00478952 0.03
      vertex -0.0146493 0.00322456 0.03
      vertex -0.0146493 0.00322456 -0.015
    endloop
  endfacet
  facet normal 0.986826 -0.161782 0
    outer loop
      vertex -0.0146493 0.00322456 -0.015
      vertex -0.0146493 0.00322456 0.03
      vertex -0.0149121 0.00162179 -0.015
    endloop
  endfacet
  facet normal 0.986826 -0.161782 0
    outer loop
      vertex -0.0146493 0.00322456 0.03
      vertex -0.0149121 0.00162179 0.03
      vertex -0.0149121 0.00162179 -0.015
    endloop
  endfacet
  facet normal 0.998533 -0.0541384 0
    outer loop
      vertex -0.0149121 0.00162179 -0.015
      vertex -0.0149121 0.00162179 0.03
      vertex -0.015 2.75546e-18 -0.015
    endloop
  endfacet
  facet normal 0.998533 -0.0541384 0
    outer loop
      vertex -0.0149121 0.00162179 0.03
      vertex -0.015 2.75546e-18 0.03
      vertex -0.015 2.75546e-18 -0.015
    endloop
  endfacet
  facet normal 0.998533 0.0541384 0
    outer loop
      vertex -0.015 2.75546e-18 -0.015
      vertex -0.015 2.75546e-18 0.03
      vertex -0.0149121 -0.00162179 -0.015
    endloop
  endfacet
  facet normal 0.998533 0.0541384 0
    outer loop
      vertex -0.015 2.75546e-18 0.03
      vertex -0.0149121 -0.00162179 0.03
      vertex -0.0149121 -0.00162179 -0.015
    endloop
  endfacet
  facet normal 0.986826 0.161782 0
    outer loop
      vertex -0.0149121 -0.00162179 -0.015
      vertex -0.0149121 -0.00162179 0.03
      vertex -0.0146493 -0.00322456 -0.015
    endloop
  endfacet
  facet normal 0.986826 0.161782 0
    outer loop
      vertex -0.0149121 -0.00162179 0.03
      vertex -0.0146493 -0.00322456 0.03
      vertex -0.0146493 -0.00322456 -0.015
    endloop
  endfacet
  facet normal 0.96355 0.267528 0
    outer loop
      vertex -0.0146493 -0.00322456 -0.015
      vertex -0.0146493 -0.00322456 0.03
      vertex -0.0142148 -0.00478952 -0.015
    endloop
  endfacet
  facet normal 0.96355 0.267528 0
    outer loop
      vertex -0.0146493 -0.00322456 0.03
      vertex -0.0142148 -0.00478952 0.03
      vertex -0.0142148 -0.00478952 -0.015
    endloop
  endfacet
  facet normal 0.928977 0.370138 0
    outer loop
      vertex -0.0142148 -0.00478952 -0.015
      vertex -0.0142148 -0.00478952 0.03
      vertex -0.0136136 -0.00629834 -0.015
    endloop
  endfacet
  facet normal 0.928977 0.370138 0
    outer loop
      vertex -0.0142148 -0.00478952 0.03
      vertex -0.0136136 -0.00629834 0.03
      vertex -0.0136136 -0.00629834 -0.015
    endloop
  endfacet
  facet normal 0.883512 0.468408 0
    outer loop
      vertex -0.0136136 -0.00629834 -0.015
      vertex -0.0136136 -0.00629834 0.03
      vertex -0.0128529 -0.00773331 -0.015
    endloop
  endfacet
  facet normal 0.883512 0.468408 0
    outer loop
      vertex -0.0136136 -0.00629834 0.03
      vertex -0.0128529 -0.00773331 0.03
      vertex -0.0128529 -0.00773331 -0.015
    endloop
  endfacet
  facet normal 0.827689 0.561187 0
    outer loop
      vertex -0.0128529 -0.00773331 -0.015
      vertex -0.0128529 -0.00773331 0.03
      vertex -0.0119414 -0.00907761 -0.015
    endloop
  endfacet
  facet normal 0.827689 0.561187 0
    outer loop
      vertex -0.0128529 -0.00773331 0.03
      vertex -0.0119414 -0.00907761 0.03
      vertex -0.0119414 -0.00907761 -0.015
    endloop
  endfacet
  facet normal 0.762162 0.647386 0
    outer loop
      vertex -0.0119414 -0.00907761 -0.015
      vertex -0.0119414 -0.00907761 0.03
      vertex -0.0108899 -0.0103155 -0.015
    endloop
  endfacet
  facet normal 0.762162 0.647386 0
    outer loop
      vertex -0.0119414 -0.00907761 0.03
      vertex -0.0108899 -0.0103155 0.03
      vertex -0.0108899 -0.0103155 -0.015
    endloop
  endfacet
  facet normal 0.687699 0.725996 0
    outer loop
      vertex -0.0108899 -0.0103155 -0.015
      vertex -0.0108899 -0.0103155 0.03
      vertex -0.00971079 -0.0114324 -0.015
    endloop
  endfacet
  facet normal 0.687699 0.725996 0
    outer loop
      vertex -0.0108899 -0.0103155 0.03
      vertex -0.00971079 -0.0114324 0.03
      vertex -0.00971079 -0.0114324 -0.015
    endloop
  endfacet
  facet normal 0.605174 0.796093 0
    outer loop
      vertex -0.00971079 -0.0114324 -0.015
      vertex -0.00971079 -0.0114324 0.03
      vertex -0.00841781 -0.0124153 -0.015
    endloop
  endfacet
  facet normal 0.605174 0.796093 0
    outer loop
      vertex -0.00971079 -0.0114324 0.03
      vertex -0.00841781 -0.0124153 0.03
      vertex -0.00841781 -0.0124153 -0.015
    endloop
  endfacet
  facet normal 0.515554 0.856857 0
    outer loop
      vertex -0.00841781 -0.0124153 -0.015
      vertex -0.00841781 -0.0124153 0.03
      vertex -0.00702613 -0.0132527 -0.015
    endloop
  endfacet
  facet normal 0.515554 0.856857 0
    outer loop
      vertex -0.00841781 -0.0124153 0.03
      vertex -0.00702613 -0.0132527 0.03
      vertex -0.00702613 -0.0132527 -0.015
    endloop
  endfacet
  facet normal 0.419889 0.907576 0
    outer loop
      vertex -0.00702613 -0.0132527 -0.015
      vertex -0.00702613 -0.0132527 0.03
      vertex -0.00555207 -0.0139347 -0.015
    endloop
  endfacet
  facet normal 0.419889 0.907576 0
    outer loop
      vertex -0.00702613 -0.0132527 0.03
      vertex -0.00555207 -0.0139347 0.03
      vertex -0.00555207 -0.0139347 -0.015
    endloop
  endfacet
  facet normal 0.319302 0.947653 0
    outer loop
      vertex -0.00555207 -0.0139347 -0.015
      vertex -0.00555207 -0.0139347 0.03
      vertex -0.00401293 -0.0144532 -0.015
    endloop
  endfacet
  facet normal 0.319302 0.947653 0
    outer loop
      vertex -0.00555207 -0.0139347 0.03
      vertex -0.00401293 -0.0144532 0.03
      vertex -0.00401293 -0.0144532 -0.015
    endloop
  endfacet
  facet normal 0.214971 0.976621 0
    outer loop
      vertex -0.00401293 -0.0144532 -0.015
      vertex -0.00401293 -0.0144532 0.03
      vertex -0.00242673 -0.0148024 -0.015
    endloop
  endfacet
  facet normal 0.214971 0.976621 0
    outer loop
      vertex -0.00401293 -0.0144532 0.03
      vertex -0.00242673 -0.0148024 0.03
      vertex -0.00242673 -0.0148024 -0.015
    endloop
  endfacet
  facet normal 0.108119 0.994138 0
    outer loop
      vertex -0.00242673 -0.0148024 -0.015
      vertex -0.00242673 -0.0148024 0.03
      vertex -0.000812084 -0.014978 -0.015
    endloop
  endfacet
  facet normal 0.108119 0.994138 0
    outer loop
      vertex -0.00242673 -0.0148024 0.03
      vertex -0.000812084 -0.014978 0.03
      vertex -0.000812084 -0.014978 -0.015
    endloop
  endfacet
  facet normal 0 1 0
    outer loop
      vertex -0.000812084 -0.014978 -0.015
      vertex -0.000812084 -0.014978 0.03
      vertex 0.000812084 -0.014978 -0.015
    endloop
  endfacet
  facet normal 0 1 0
    outer loop
      vertex -0.000812084 -0.014978 0.03
      vertex 0.000812084 -0.014978 0.03
      vertex 0.000812084 -0.014978 -0.015
    endloop
  endfacet
  facet normal -0.108119 0.994138 0
    outer loop
      vertex 0.000812084 -0.014978 -0.015
      vertex 0.000812084 -0.014978 0.03
      vertex 0.00242673 -0.0148024 -0.015
    endloop
  endfacet
  facet normal -0.108119 0.994138 0
    outer loop
      vertex 0.000812084 -0.014978 0.03
      vertex 0.00242673 -0.0148024 0.03
      vertex 0.00242673 -0.0148024 -0.015
    endloop
  endfacet
  facet normal -0.214971 0.976621 0
    outer loop
      vertex 0.00242673 -0.0148024 -0.015
      vertex 0.00242673 -0.0148024 0.03
      vertex 0.00401293 -0.0144532 -0.015
    endloop
  endfacet
  facet normal -0.214971 0.976621 0
    outer loop
      vertex 0.00242673 -0.0148024 0.03
      vertex 0.00401293 -0.0144532 0.03
      vertex 0.00401293 -0.0144532 -0.015
    endloop
  endfacet
  facet normal -0.319302 0.947653 0
    outer loop
      vertex 0.00401293 -0.0144532 -0.015
      vertex 0.00401293 -0.0144532 0.03
      vertex 0.00555207 -0.0139347 -0.015
    endloop
  endfacet
  facet normal -0.319302 0.947653 0
    outer loop
      vertex 0.00401293 -0.0144532 0.03
      vertex 0.00555207 -0.0139347 0.03
      vertex 0.00555207 -0.0139347 -0.015
    endloop
  endfacet
  facet normal -0.419889 0.907576 0
    outer loop
      vertex 0.00555207 -0.0139347 -0.015
      vertex 0.00555207 -0.0139347 0.03
      vertex 0.00702613 -0.0132527 -0.015
    endloop
  endfacet
  facet normal -0.419889 0.907576 0
    outer loop
      vertex 0.00555207 -0.0139347 0.03
      vertex 0.00702613 -0.0132527 0.03
      vertex 0.00702613 -0.0132527 -0.015
    endloop
  endfacet
  facet normal -0.515554 0.856857 0
    outer loop
      vertex 0.00702613 -0.0132527 -0.015
      vertex 0.00702613 -0.0132527 0.03
      vertex 0.00841781 -0.0124153 -0.015
    endloop
  endfacet
  facet normal -0.515554 0.856857 0
    outer loop
      vertex 0.00702613 -0.0132527 0.03
      vertex 0.00841781 -0.0124153 0.03
      vertex 0.00841781 -0.0124153 -0.015
    endloop
  endfacet
  facet normal -0.605174 0.796093 0
    outer loop
      vertex 0.00841781 -0.0124153 -0.015
      vertex 0.00841781 -0.0124153 0.03
      vertex 0.00971079 -0.0114324 -0.015
    endloop
  endfacet
  facet normal -0.605174 0.796093 0
    outer loop
      vertex 0.00841781 -0.0124153 0.03
      vertex 0.00971079 -0.0114324 0.03
      vertex 0.00971079 -0.0114324 -0.015
    endloop
  endfacet
  facet normal -0.687699 0.725996 0
    outer loop
      vertex 0.00971079 -0.0114324 -0.015
      vertex 0.00971079 -0.0114324 0.03
      vertex 0.0108899 -0.0103155 -0.015
    endloop
  endfacet
  facet normal -0.687699 0.725996 0
    outer loop
      vertex 0.00971079 -0.0114324 0.03
      vertex 0.0108899 -0.0103155 0.03
      vertex 0.0108899 -0.0103155 -0.015
    endloop
  endfacet
  facet normal -0.762162 0.647386 0
    outer loop
      vertex 0.0108899 -0.0103155 -0.015
      vertex 0.0108899 -0.0103155 0.03
      vertex 0.0119414 -0.00907761 -0.015
    endloop
  endfacet
  facet normal -0.762162 0.647386 0
    outer loop
      vertex 0.0108899 -0.0103155 0.03
      vertex 0.0119414 -0.00907761 0.03
      vertex 0.0119414 -0.00907761 -0.015
    endloop
  endfacet
  facet normal -0.827689 0.561187 0
    outer loop
      vertex 0.0119414 -0.00907761 -0.015
      vertex 0.0119414 -0.00907761 0.03
      vertex 0.0128529 -0.00773331 -0.015
    endloop
  endfacet
  facet normal -0.827689 0.561187 0
    outer loop
      vertex 0.0119414 -0.00907761 0.03
      vertex 0.0128529 -0.00773331 0.03
      vertex 0.0128529 -0.00773331 -0.015
    endloop
  endfacet
  facet normal -0.883512 0.468408 0
    outer loop
      vertex 0.0128529 -0.00773331 -0.015
      vertex 0.0128529 -0.00773331 0.03
      vertex 0.0136136 -0.00629834 -0.015
    endloop
  endfacet
  facet normal -0.883512 0.468408 0
    outer loop
      vertex 0.0128529 -0.00773331 0.03
      vertex 0.0136136 -0.00629834 0.03
      vertex 0.0136136 -0.00629834 -0.015
    endloop
  endfacet
  facet normal -0.928977 0.370138 0
    outer loop
      vertex 0.0136136 -0.00629834 -0.015
      vertex 0.0136136 -0.00629834 0.03
      vertex 0.0142148 -0.00478952 -0.015
    endloop
  endfacet
  facet normal -0.928977 0.370138 0
    outer loop
      vertex 0.0136136 -0.00629834 0.03
      vertex 0.0142148 -0.00478952 0.03
      vertex 0.0142148 -0.00478952 -0.015
    endloop
  endfacet
  facet normal -0.96355 0.267528 0
    outer loop
      vertex 0.0142148 -0.00478952 -0.015
      vertex 0.0142148 -0.00478952 0.03
      vertex 0.0146493 -0.00322456 -0.015
    endloop
  endfacet
  facet normal -0.96355 0.267528 0
    outer loop
      vertex 0.0142148 -0.00478952 0.03
      vertex 0.0146493 -0.00322456 0.03
      vertex 0.0146493 -0.00322456 -0.015
    endloop
  endfacet
  facet normal -0.986826 0.161782 0
    outer loop
      vertex 0.0146493 -0.00322456 -0.015
      vertex 0.0146493 -0.00322456 0.03
      vertex 0.0149121 -0.00162179 -0.015
    endloop
  endfacet
  facet normal -0.986826 0.161782 0
    outer loop
      vertex 0.0146493 -0.00322456 0.03
      vertex 0.0149121 -0.00162179 0.03
      vertex 0.0149121 -0.00162179 -0.015
    endloop
  endfacet
  facet normal -0.998533 0.0541384 0
    outer loop
      vertex 0.0149121 -0.00162179 -0.015
      vertex 0.0149121 -0.00162179 0.03
      vertex 0.015 9.18485e-19 -0.015
    endloop
  endfacet
  facet normal -0.998533 0.0541384 4.34599e-18
    outer loop
      vertex 0.0149121 -0.00162179 0.03
      vertex 0.015 -2.75546e-18 0.03
      vertex 0.015 9.18485e-19 -0.015
    endloop
  endfacet
  facet normal 0 0 -1
    outer loop
      vertex 0.03 5.51091e-18 -0.03
      vertex 0.0298241 -0.00324357 -0.03
      vertex 0 1.83697e-18 -0.03
    endloop
  endfacet
  facet normal 0 0 -1
    outer loop
      vertex 0.0284296 0.00957905 -0.03
      vertex 0.0292986 0.00644911 -0.03
      vertex 0 1.83697e-18 -0.03
    endloop
  endfacet
  facet normal 0 0 -1
    outer loop
      vertex 0.0292986 0.00644911 -0.03
      vertex 0.0298241 0.00324357 -0.03
      vertex 0 1.83697e-18 -0.03
    endloop
  endfacet
  facet normal 0 0 -1
    outer loop
      vertex 0 1.83697e-18 -0.03
      vertex 0.0298241 0.00324357 -0.03
      vertex 0.03 5.51091e-18 -0.03
    endloop
  endfacet
  facet normal 0 0 -1
    outer loop
      vertex 0.0238828 0.0181552 -0.03
      vertex 0.0257057 0.0154666 -0.03
      vertex 0 1.83697e-18 -0.03
    endloop
  endfacet
  facet normal 0 0 -1
    outer loop
      vertex 0.0257057 0.0154666 -0.03
      vertex 0.0272273 0.0125967 -0.03
      vertex 0 1.83697e-18 -0.03
    endloop
  endfacet
  facet normal 0 0 -1
    outer loop
      vertex 0 1.83697e-18 -0.03
      vertex 0.0272273 0.0125967 -0.03
      vertex 0.0284296 0.00957905 -0.03
    endloop
  endfacet
  facet normal 0 0 -1
    outer loop
      vertex 0.0168356 0.0248307 -0.03
      vertex 0.0194216 0.0228649 -0.03
      vertex 0 1.83697e-18 -0.03
    endloop
  endfacet
  facet normal 0 0 -1
    outer loop
      vertex 0.0194216 0.0228649 -0.03
      vertex 0.0217799 0.020631 -0.03
      vertex 0 1.83697e-18 -0.03
    endloop
  endfacet
  facet normal 0 0 -1
    outer loop
      vertex 0 1.83697e-18 -0.03
      vertex 0.0217799 0.020631 -0.03
      vertex 0.0238828 0.0181552 -0.03
    endloop
  endfacet
  facet normal 0 0 -1
    outer loop
      vertex 0.00802585 0.0289065 -0.03
      vertex 0.0111041 0.0278693 -0.03
      vertex 0 1.83697e-18 -0.03
    endloop
  endfacet
  facet normal 0 0 -1
    outer loop
      vertex 0.0111041 0.0278693 -0.03
      vertex 0.0140523 0.0265054 -0.03
      vertex 0 1.83697e-18 -0.03
    endloop
  endfacet
  facet normal 0 0 -1
    outer loop
      vertex 0 1.83697e-18 -0.03
      vertex 0.0140523 0.0265054 -0.03
      vertex 0.0168356 0.0248307 -0.03
    endloop
  endfacet
  facet normal 0 0 -1
    outer loop
      vertex -0.00162417 0.029956 -0.03
      vertex 0.00162417 0.029956 -0.03
      vertex 0 1.83697e-18 -0.03
    endloop
  endfacet
  facet normal 0 0 -1
    outer loop
      vertex 0.00162417 0.029956 -0.03
      vertex 0.00485346 0.0296048 -0.03
      vertex 0 1.83697e-18 -0.03
    endloop
  endfacet
  facet normal 0 0 -1
    outer loop
      vertex 0 1.83697e-18 -0.03
      vertex 0.00485346 0.0296048 -0.03
      vertex 0.00802585 0.0289065 -0.03
    endloop
  endfacet
  facet normal 0 0 -1
    outer loop
      vertex -0.0111041 0.0278693 -0.03
      vertex -0.00802585 0.0289065 -0.03
      vertex 0 1.83697e-18 -0.03
    endloop
  endfacet
  facet normal 0 0 -1
    outer loop
      vertex -0.00802585 0.0289065 -0.03
      vertex -0.00485346 0.0296048 -0.03
      vertex 0 1.83697e-18 -0.03
    endloop
  endfacet
  facet normal 0 0 -1
    outer loop
      vertex 0 1.83697e-18 -0.03
      vertex -0.00485346 0.0296048 -0.03
      vertex -0.00162417 0.029956 -0.03
    endloop
  endfacet
  facet normal 0 0 -1
    outer loop
      vertex -0.0194216 0.0228649 -0.03
      vertex -0.0168356 0.0248307 -0.03
      vertex 0 1.83697e-18 -0.03
    endloop
  endfacet
  facet normal 0 0 -1
    outer loop
      vertex -0.0168356 0.0248307 -0.03
      vertex -0.0140523 0.0265054 -0.03
      vertex 0 1.83697e-18 -0.03
    endloop
  endfacet
  facet normal 0 0 -1
    outer loop
      vertex 0 1.83697e-18 -0.03
      vertex -0.0140523 0.0265054 -0.03
      vertex -0.0111041 0.0278693 -0.03
    endloop
  endfacet
  facet normal 0 0 -1
    outer loop
      vertex -0.0257057 0.0154666 -0.03
      vertex -0.0238828 0.0181552 -0.03
      vertex 0 1.83697e-18 -0.03
    endloop
  endfacet
  facet normal 0 0 -1
    outer loop
      vertex -0.0238828 0.0181552 -0.03
      vertex -0.0217799 0.020631 -0.03
      vertex 0 1.83697e-18 -0.03
    endloop
  endfacet
  facet normal 0 0 -1
    outer loop
      vertex 0 1.83697e-18 -0.03
      vertex -0.0217799 0.020631 -0.03
      vertex -0.0194216 0.0228649 -0.03
    endloop
  endfacet
  facet normal 0 0 -1
    outer loop
      vertex -0.0292986 0.00644911 -0.03
      vertex -0.0284296 0.00957905 -0.03
      vertex 0 1.83697e-18 -0.03
    endloop
  endfacet
  facet normal 0 0 -1
    outer loop
      vertex -0.0284296 0.00957905 -0.03
      vertex -0.0272273 0.0125967 -0.03
      vertex 0 1.83697e-18 -0.03
    endloop
  endfacet
  facet normal 0 0 -1
    outer loop
      vertex 0 1.83697e-18 -0.03
      vertex -0.0272273 0.0125967 -0.03
      vertex -0.0257057 0.0154666 -0.03
    endloop
  endfacet
  facet normal 0 0 -1
    outer loop
      vertex -0.0298241 -0.00324357 -0.03
      vertex -0.03 1.83697e-18 -0.03
      vertex 0 1.83697e-18 -0.03
    endloop
  endfacet
  facet normal 0 0 -1
    outer loop
      vertex -0.03 1.83697e-18 -0.03
      vertex -0.0298241 0.00324357 -0.03
      vertex 0 1.83697e-18 -0.03
    endloop
  endfacet
  facet normal 0 0 -1
    outer loop
      vertex 0 1.83697e-18 -0.03
      vertex -0.0298241 0.00324357 -0.03
      vertex -0.0292986 0.00644911 -0.03
    endloop
  endfacet
  facet normal 0 0 -1
    outer loop
      vertex -0.0272273 -0.0125967 -0.03
      vertex -0.0284296 -0.00957905 -0.03
      vertex 0 1.83697e-18 -0.03
    endloop
  endfacet
  facet normal 0 0 -1
    outer loop
      vertex -0.0284296 -0.00957905 -0.03
      vertex -0.0292986 -0.00644911 -0.03
      vertex 0 1.83697e-18 -0.03
    endloop
  endfacet
  facet normal 0 0 -1
    outer loop
      vertex 0 1.83697e-18 -0.03
      vertex -0.0292986 -0.00644911 -0.03
      vertex -0.0298241 -0.00324357 -0.03
    endloop
  endfacet
  facet normal 0 0 -1
    outer loop
      vertex -0.0217799 -0.020631 -0.03
      vertex -0.0238828 -0.0181552 -0.03
      vertex 0 1.83697e-18 -0.03
    endloop
  endfacet
  facet normal 0 0 -1
    outer loop
      vertex -0.0238828 -0.0181552 -0.03
      vertex -0.0257057 -0.0154666 -0.03
      vertex 0 1.83697e-18 -0.03
    endloop
  endfacet
  facet normal 0 0 -1
    outer loop
      vertex 0 1.83697e-18 -0.03
      vertex -0.0257057 -0.0154666 -0.03
      vertex -0.0272273 -0.0125967 -0.03
    endloop
  endfacet
  facet normal 0 0 -1
    outer loop
      vertex -0.0140523 -0.0265054 -0.03
      vertex -0.0168356 -0.0248307 -0.03
      vertex 0 1.83697e-18 -0.03
    endloop
  endfacet
  facet normal 0 0 -1
    outer loop
      vertex -0.0168356 -0.0248307 -0.03
      vertex -0.0194216 -0.0228649 -0.03
      vertex 0 1.83697e-18 -0.03
    endloop
  endfacet
  facet normal 0 0 -1
    outer loop
      vertex 0 1.83697e-18 -0.03
      vertex -0.0194216 -0.0228649 -0.03
      vertex -0.0217799 -0.020631 -0.03
    endloop
  endfacet
  facet normal 0 0 -1
    outer loop
      vertex -0.00485346 -0.0296048 -0.03
      vertex -0.00802585 -0.0289065 -0.03
      vertex 0 1.83697e-18 -0.03
    endloop
  endfacet
  facet normal 0 0 -1
    outer loop
      vertex -0.00802585 -0.0289065 -0.03
      vertex -0.0111041 -0.0278693 -0.03
      vertex 0 1.83697e-18 -0.03
    endloop
  endfacet
  facet normal 0 0 -1
    outer loop
      vertex 0 1.83697e-18 -0.03
      vertex -0.0111041 -0.0278693 -0.03
      vertex -0.0140523 -0.0265054 -0.03
    endloop
  endfacet
  facet normal 0 0 -1
    outer loop
      vertex 0.00485346 -0.0296048 -0.03
      vertex 0.00162417 -0.029956 -0.03
      vertex 0 1.83697e-18 -0.03
    endloop
  endfacet
  facet normal 0 0 -1
    outer loop
      vertex 0.00162417 -0.029956 -0.03
      vertex -0.00162417 -0.029956 -0.03
      vertex 0 1.83697e-18 -0.03
    endloop
  endfacet
  facet normal 0 0 -1
    outer loop
      vertex 0 1.83697e-18 -0.03
      vertex -0.00162417 -0.029956 -0.03
      vertex -0.00485346 -0.0296048 -0.03
    endloop
  endfacet
  facet normal 0 0 -1
    outer loop
      vertex 0.0140523 -0.0265054 -0.03
      vertex 0.0111041 -0.0278693 -0.03
      vertex 0 1.83697e-18 -0.03
    endloop
  endfacet
  facet normal 0 0 -1
    outer loop
      vertex 0.0111041 -0.0278693 -0.03
      vertex 0.00802585 -0.0289065 -0.03
      vertex 0 1.83697e-18 -0.03
    endloop
  endfacet
  facet normal 0 0 -1
    outer loop
      vertex 0 1.83697e-18 -0.03
      vertex 0.00802585 -0.0289065 -0.03
      vertex 0.00485346 -0.0296048 -0.03
    endloop
  endfacet
  facet normal 0 0 -1
    outer loop
      vertex 0.0217799 -0.020631 -0.03
      vertex 0.0194216 -0.0228649 -0.03
      vertex 0 1.83697e-18 -0.03
    endloop
  endfacet
  facet normal 0 0 -1
    outer loop
      vertex 0.0194216 -0.0228649 -0.03
      vertex 0.0168356 -0.0248307 -0.03
      vertex 0 1.83697e-18 -0.03
    endloop
  endfacet
  facet normal 0 0 -1
    outer loop
      vertex 0 1.83697e-18 -0.03
      vertex 0.0168356 -0.0248307 -0.03
      vertex 0.0140523 -0.0265054 -0.03
    endloop
  endfacet
  facet normal 0 0 -1
    outer loop
      vertex 0.0272273 -0.0125967 -0.03
      vertex 0.0257057 -0.0154666 -0.03
      vertex 0 1.83697e-18 -0.03
    endloop
  endfacet
  facet normal 0 0 -1
    outer loop
      vertex 0.0257057 -0.0154666 -0.03
      vertex 0.0238828 -0.0181552 -0.03
      vertex 0 1.83697e-18 -0.03
    endloop
  endfacet
  facet normal 0 0 -1
    outer loop
      vertex 0 1.83697e-18 -0.03
      vertex 0.0238828 -0.0181552 -0.03
      vertex 0.0217799 -0.020631 -0.03
    endloop
  endfacet
  facet normal 0 0 -1
    outer loop
      vertex 0.0298241 -0.00324357 -0.03
      vertex 0.0292986 -0.00644911 -0.03
      vertex 0 1.83697e-18 -0.03
    endloop
  endfacet
  facet normal 0 0 -1
    outer loop
      vertex 0.0292986 -0.00644911 -0.03
      vertex 0.0284296 -0.00957905 -0.03
      vertex 0 1.83697e-18 -0.03
    endloop
  endfacet
  facet normal 0 0 -1
    outer loop
      vertex 0 1.83697e-18 -0.03
      vertex 0.0284296 -0.00957905 -0.03
      vertex 0.0272273 -0.0125967 -0.03
    endloop
  endfacet
  facet normal -0.998533 0.0541384 0
    outer loop
      vertex -0.03 1.83697e-18 -0.03
      vertex -0.0298241 0.00324357 0.03
      vertex -0.0298241 0.00324357 -0.03
    endloop
  endfacet
  facet normal -0.986826 0.161782 0
    outer loop
      vertex -0.0298241 0.00324357 0.03
      vertex -0.0292986 0.00644911 0.03
      vertex -0.0298241 0.00324357 -0.03
    endloop
  endfacet
  facet normal -0.986826 0.161782 0
    outer loop
      vertex -0.0298241 0.00324357 -0.03
      vertex -0.0292986 0.00644911 0.03
      vertex -0.0292986 0.00644911 -0.03
    endloop
  endfacet
  facet normal -0.96355 0.267528 0
    outer loop
      vertex -0.0292986 0.00644911 0.03
      vertex -0.0284296 0.00957905 0.03
      vertex -0.0292986 0.00644911 -0.03
    endloop
  endfacet
  facet normal -0.96355 0.267528 0
    outer loop
      vertex -0.0292986 0.00644911 -0.03
      vertex -0.0284296 0.00957905 0.03
      vertex -0.0284296 0.00957905 -0.03
    endloop
  endfacet
  facet normal -0.928977 0.370138 0
    outer loop
      vertex -0.0284296 0.00957905 0.03
      vertex -0.0272273 0.0125967 0.03
      vertex -0.0284296 0.00957905 -0.03
    endloop
  endfacet
  facet normal -0.928977 0.370138 0
    outer loop
      vertex -0.0284296 0.00957905 -0.03
      vertex -0.0272273 0.0125967 0.03
      vertex -0.0272273 0.0125967 -0.03
    endloop
  endfacet
  facet normal -0.883512 0.468408 0
    outer loop
      vertex -0.0272273 0.0125967 0.03
      vertex -0.0257057 0.0154666 0.03
      vertex -0.0272273 0.0125967 -0.03
    endloop
  endfacet
  facet normal -0.883512 0.468408 0
    outer loop
      vertex -0.0272273 0.0125967 -0.03
      vertex -0.0257057 0.0154666 0.03
      vertex -0.0257057 0.0154666 -0.03
    endloop
  endfacet
  facet normal -0.827689 0.561187 0
    outer loop
      vertex -0.0257057 0.0154666 0.03
      vertex -0.0238828 0.0181552 0.03
      vertex -0.0257057 0.0154666 -0.03
    endloop
  endfacet
  facet normal -0.827689 0.561187 0
    outer loop
      vertex -0.0257057 0.0154666 -0.03
      vertex -0.0238828 0.0181552 0.03
      vertex -0.0238828 0.0181552 -0.03
    endloop
  endfacet
  facet normal -0.762162 0.647386 0
    outer loop
      vertex -0.0238828 0.0181552 0.03
      vertex -0.0217799 0.020631 0.03
      vertex -0.0238828 0.0181552 -0.03
    endloop
  endfacet
  facet normal -0.762162 0.647386 0
    outer loop
      vertex -0.0238828 0.0181552 -0.03
      vertex -0.0217799 0.020631 0.03
      vertex -0.0217799 0.020631 -0.03
    endloop
  endfacet
  facet normal -0.687699 0.725996 0
    outer loop
      vertex -0.0217799 0.020631 0.03
      vertex -0.0194216 0.0228649 0.03
      vertex -0.0217799 0.020631 -0.03
    endloop
  endfacet
  facet normal -0.687699 0.725996 0
    outer loop
      vertex -0.0217799 0.020631 -0.03
      vertex -0.0194216 0.0228649 0.03
      vertex -0.0194216 0.0228649 -0.03
    endloop
  endfacet
  facet normal -0.605174 0.796093 0
    outer loop
      vertex -0.0194216 0.0228649 0.03
      vertex -0.0168356 0.0248307 0.03
      vertex -0.0194216 0.0228649 -0.03
    endloop
  endfacet
  facet normal -0.605174 0.796093 0
    outer loop
      vertex -0.0194216 0.0228649 -0.03
      vertex -0.0168356 0.0248307 0.03
      vertex -0.0168356 0.0248307 -0.03
    endloop
  endfacet
  facet normal -0.515554 0.856857 0
    outer loop
      vertex -0.0168356 0.0248307 0.03
      vertex -0.0140523 0.0265054 0.03
      vertex -0.0168356 0.0248307 -0.03
    endloop
  endfacet
  facet normal -0.515554 0.856857 0
    outer loop
      vertex -0.0168356 0.0248307 -0.03
      vertex -0.0140523 0.0265054 0.03
      vertex -0.0140523 0.0265054 -0.03
    endloop
  endfacet
  facet normal -0.419889 0.907576 0
    outer loop
      vertex -0.0140523 0.0265054 0.03
      vertex -0.0111041 0.0278693 0.03
      vertex -0.0140523 0.0265054 -0.03
    endloop
  endfacet
  facet normal -0.419889 0.907576 0
    outer loop
      vertex -0.0140523 0.0265054 -0.03
      vertex -0.0111041 0.0278693 0.03
      vertex -0.0111041 0.0278693 -0.03
    endloop
  endfacet
  facet normal -0.319302 0.947653 0
    outer loop
      vertex -0.0111041 0.0278693 0.03
      vertex -0.00802585 0.0289065 0.03
      vertex -0.0111041 0.0278693 -0.03
    endloop
  endfacet
  facet normal -0.319302 0.947653 0
    outer loop
      vertex -0.0111041 0.0278693 -0.03
      vertex -0.00802585 0.0289065 0.03
      vertex -0.00802585 0.0289065 -0.03
    endloop
  endfacet
  facet normal -0.214971 0.976621 0
    outer loop
      vertex -0.00802585 0.0289065 0.03
      vertex -0.00485346 0.0296048 0.03
      vertex -0.00802585 0.0289065 -0.03
    endloop
  endfacet
  facet normal -0.214971 0.976621 0
    outer loop
      vertex -0.00802585 0.0289065 -0.03
      vertex -0.00485346 0.0296048 0.03
      vertex -0.00485346 0.0296048 -0.03
    endloop
  endfacet
  facet normal -0.108119 0.994138 0
    outer loop
      vertex -0.00485346 0.0296048 0.03
      vertex -0.00162417 0.029956 0.03
      vertex -0.00485346 0.0296048 -0.03
    endloop
  endfacet
  facet normal -0.108119 0.994138 0
    outer loop
      vertex -0.00485346 0.0296048 -0.03
      vertex -0.00162417 0.029956 0.03
      vertex -0.00162417 0.029956 -0.03
    endloop
  endfacet
  facet normal 0 1 0
    outer loop
      vertex -0.00162417 0.029956 0.03
      vertex 0.00162417 0.029956 0.03
      vertex -0.00162417 0.029956 -0.03
    endloop
  endfacet
  facet normal 0 1 0
    outer loop
      vertex -0.00162417 0.029956 -0.03
      vertex 0.00162417 0.029956 0.03
      vertex 0.00162417 0.029956 -0.03
    endloop
  endfacet
  facet normal 0.108119 0.994138 0
    outer loop
      vertex 0.00162417 0.029956 0.03
      vertex 0.00485346 0.0296048 0.03
      vertex 0.00162417 0.029956 -0.03
    endloop
  endfacet
  facet normal 0.108119 0.994138 0
    outer loop
      vertex 0.00162417 0.029956 -0.03
      vertex 0.00485346 0.0296048 0.03
      vertex 0.00485346 0.0296048 -0.03
    endloop
  endfacet
  facet normal 0.214971 0.976621 0
    outer loop
      vertex 0.00485346 0.0296048 0.03
      vertex 0.00802585 0.0289065 0.03
      vertex 0.00485346 0.0296048 -0.03
    endloop
  endfacet
  facet normal 0.214971 0.976621 0
    outer loop
      vertex 0.00485346 0.0296048 -0.03
      vertex 0.00802585 0.0289065 0.03
      vertex 0.00802585 0.0289065 -0.03
    endloop
  endfacet
  facet normal 0.319302 0.947653 0
    outer loop
      vertex 0.00802585 0.0289065 0.03
      vertex 0.0111041 0.0278693 0.03
      vertex 0.00802585 0.0289065 -0.03
    endloop
  endfacet
  facet normal 0.319302 0.947653 0
    outer loop
      vertex 0.00802585 0.0289065 -0.03
      vertex 0.0111041 0.0278693 0.03
      vertex 0.0111041 0.0278693 -0.03
    endloop
  endfacet
  facet normal 0.419889 0.907576 0
    outer loop
      vertex 0.0111041 0.0278693 0.03
      vertex 0.0140523 0.0265054 0.03
      vertex 0.0111041 0.0278693 -0.03
    endloop
  endfacet
  facet normal 0.419889 0.907576 0
    outer loop
      vertex 0.0111041 0.0278693 -0.03
      vertex 0.0140523 0.0265054 0.03
      vertex 0.0140523 0.0265054 -0.03
    endloop
  endfacet
  facet normal 0.515554 0.856857 0
    outer loop
      vertex 0.0140523 0.0265054 0.03
      vertex 0.0168356 0.0248307 0.03
      vertex 0.0140523 0.0265054 -0.03
    endloop
  endfacet
  facet normal 0.515554 0.856857 0
    outer loop
      vertex 0.0140523 0.0265054 -0.03
      vertex 0.0168356 0.0248307 0.03
      vertex 0.0168356 0.0248307 -0.03
    endloop
  endfacet
  facet normal 0.605174 0.796093 0
    outer loop
      vertex 0.0168356 0.0248307 0.03
      vertex 0.0194216 0.0228649 0.03
      vertex 0.0168356 0.0248307 -0.03
    endloop
  endfacet
  facet normal 0.605174 0.796093 0
    outer loop
      vertex 0.0168356 0.0248307 -0.03
      vertex 0.0194216 0.0228649 0.03
      vertex 0.0194216 0.0228649 -0.03
    endloop
  endfacet
  facet normal 0.687699 0.725996 0
    outer loop
      vertex 0.0194216 0.0228649 0.03
      vertex 0.0217799 0.020631 0.03
      vertex 0.0194216 0.0228649 -0.03
    endloop
  endfacet
  facet normal 0.687699 0.725996 0
    outer loop
      vertex 0.0194216 0.0228649 -0.03
      vertex 0.0217799 0.020631 0.03
      vertex 0.0217799 0.020631 -0.03
    endloop
  endfacet
  facet normal 0.762162 0.647386 0
    outer loop
      vertex 0.0217799 0.020631 0.03
      vertex 0.0238828 0.0181552 0.03
      vertex 0.0217799 0.020631 -0.03
    endloop
  endfacet
  facet normal 0.762162 0.647386 0
    outer loop
      vertex 0.0217799 0.020631 -0.03
      vertex 0.0238828 0.0181552 0.03
      vertex 0.0238828 0.0181552 -0.03
    endloop
  endfacet
  facet normal 0.827689 0.561187 0
    outer loop
      vertex 0.0238828 0.0181552 0.03
      vertex 0.0257057 0.0154666 0.03
      vertex 0.0238828 0.0181552 -0.03
    endloop
  endfacet
  facet normal 0.827689 0.561187 0
    outer loop
      vertex 0.0238828 0.0181552 -0.03
      vertex 0.0257057 0.0154666 0.03
      vertex 0.0257057 0.0154666 -0.03
    endloop
  endfacet
  facet normal 0.883512 0.468408 0
    outer loop
      vertex 0.0257057 0.0154666 0.03
      vertex 0.0272273 0.0125967 0.03
      vertex 0.0257057 0.0154666 -0.03
    endloop
  endfacet
  facet normal 0.883512 0.468408 0
    outer loop
      vertex 0.0257057 0.0154666 -0.03
      vertex 0.0272273 0.0125967 0.03
      vertex 0.0272273 0.0125967 -0.03
    endloop
  endfacet
  facet normal 0.928977 0.370138 0
    outer loop
      vertex 0.0272273 0.0125967 0.03
      vertex 0.0284296 0.00957905 0.03
      vertex 0.0272273 0.0125967 -0.03
    endloop
  endfacet
  facet normal 0.928977 0.370138 0
    outer loop
      vertex 0.0272273 0.0125967 -0.03
      vertex 0.0284296 0.00957905 0.03
      vertex 0.0284296 0.00957905 -0.03
    endloop
  endfacet
  facet normal 0.96355 0.267528 0
    outer loop
      vertex 0.0284296 0.00957905 0.03
      vertex 0.0292986 0.00644911 0.03
      vertex 0.0284296 0.00957905 -0.03
    endloop
  endfacet
  facet normal 0.96355 0.267528 0
    outer loop
      vertex 0.0284296 0.00957905 -0.03
      vertex 0.0292986 0.00644911 0.03
      vertex 0.0292986 0.00644911 -0.03
    endloop
  endfacet
  facet normal 0.986826 0.161782 0
    outer loop
      vertex 0.0292986 0.00644911 0.03
      vertex 0.0298241 0.00324357 0.03
      vertex 0.0292986 0.00644911 -0.03
    endloop
  endfacet
  facet normal 0.986826 0.161782 0
    outer loop
      vertex 0.0292986 0.00644911 -0.03
      vertex 0.0298241 0.00324357 0.03
      vertex 0.0298241 0.00324357 -0.03
    endloop
  endfacet
  facet normal 0.998533 0.0541384 0
    outer loop
      vertex 0.0298241 0.00324357 0.03
      vertex 0.03 1.28588e-17 0.03
      vertex 0.0298241 0.00324357 -0.03
    endloop
  endfacet
  facet normal 0.998533 0.0541384 -7.06223e-18
    outer loop
      vertex 0.0298241 0.00324357 -0.03
      vertex 0.03 1.28588e-17 0.03
      vertex 0.03 5.51091e-18 -0.03
    endloop
  endfacet
  facet normal 0.998533 -0.0541384 6.63005e-18
    outer loop
      vertex 0.03 1.28588e-17 0.03
      vertex 0.0298241 -0.00324357 0.03
      vertex 0.03 5.51091e-18 -0.03
    endloop
  endfacet
  facet normal 0.998533 -0.0541384 0
    outer loop
      vertex 0.03 5.51091e-18 -0.03
      vertex 0.0298241 -0.00324357 0.03
      vertex 0.0298241 -0.00324357 -0.03
    endloop
  endfacet
  facet normal 0.986826 -0.161782 0
    outer loop
      vertex 0.0298241 -0.00324357 0.03
      vertex 0.0292986 -0.00644911 0.03
      vertex 0.0298241 -0.00324357 -0.03
    endloop
  endfacet
  facet normal 0.986826 -0.161782 0
    outer loop
      vertex 0.0298241 -0.00324357 -0.03
      vertex 0.0292986 -0.00644911 0.03
      vertex 0.0292986 -0.00644911 -0.03
    endloop
  endfacet
  facet normal 0.96355 -0.267528 0
    outer loop
      vertex 0.0292986 -0.00644911 0.03
      vertex 0.0284296 -0.00957905 0.03
      vertex 0.0292986 -0.00644911 -0.03
    endloop
  endfacet
  facet normal 0.96355 -0.267528 0
    outer loop
      vertex 0.0292986 -0.00644911 -0.03
      vertex 0.0284296 -0.00957905 0.03
      vertex 0.0284296 -0.00957905 -0.03
    endloop
  endfacet
  facet normal 0.928977 -0.370138 0
    outer loop
      vertex 0.0284296 -0.00957905 0.03
      vertex 0.0272273 -0.0125967 0.03
      vertex 0.0284296 -0.00957905 -0.03
    endloop
  endfacet
  facet normal 0.928977 -0.370138 0
    outer loop
      vertex 0.0284296 -0.00957905 -0.03
      vertex 0.0272273 -0.0125967 0.03
      vertex 0.0272273 -0.0125967 -0.03
    endloop
  endfacet
  facet normal 0.883512 -0.468408 0
    outer loop
      vertex 0.0272273 -0.0125967 0.03
      vertex 0.0257057 -0.0154666 0.03
      vertex 0.0272273 -0.0125967 -0.03
    endloop
  endfacet
  facet normal 0.883512 -0.468408 0
    outer loop
      vertex 0.0272273 -0.0125967 -0.03
      vertex 0.0257057 -0.0154666 0.03
      vertex 0.0257057 -0.0154666 -0.03
    endloop
  endfacet
  facet normal 0.827689 -0.561187 0
    outer loop
      vertex 0.0257057 -0.0154666 0.03
      vertex 0.0238828 -0.0181552 0.03
      vertex 0.0257057 -0.0154666 -0.03
    endloop
  endfacet
  facet normal 0.827689 -0.561187 0
    outer loop
      vertex 0.0257057 -0.0154666 -0.03
      vertex 0.0238828 -0.0181552 0.03
      vertex 0.0238828 -0.0181552 -0.03
    endloop
  endfacet
  facet normal 0.762162 -0.647386 0
    outer loop
      vertex 0.0238828 -0.0181552 0.03
      vertex 0.0217799 -0.020631 0.03
      vertex 0.0238828 -0.0181552 -0.03
    endloop
  endfacet
  facet normal 0.762162 -0.647386 0
    outer loop
      vertex 0.0238828 -0.0181552 -0.03
      vertex 0.0217799 -0.020631 0.03
      vertex 0.0217799 -0.020631 -0.03
    endloop
  endfacet
  facet normal 0.687699 -0.725996 0
    outer loop
      vertex 0.0217799 -0.020631 0.03
      vertex 0.0194216 -0.0228649 0.03
      vertex 0.0217799 -0.020631 -0.03
    endloop
  endfacet
  facet normal 0.687699 -0.725996 0
    outer loop
      vertex 0.0217799 -0.020631 -0.03
      vertex 0.0194216 -0.0228649 0.03
      vertex 0.0194216 -0.0228649 -0.03
    endloop
  endfacet
  facet normal 0.605174 -0.796093 0
    outer loop
      vertex 0.0194216 -0.0228649 0.03
      vertex 0.0168356 -0.0248307 0.03
      vertex 0.0194216 -0.0228649 -0.03
    endloop
  endfacet
  facet normal 0.605174 -0.796093 0
    outer loop
      vertex 0.0194216 -0.0228649 -0.03
      vertex 0.0168356 -0.0248307 0.03
      vertex 0.0168356 -0.0248307 -0.03
    endloop
  endfacet
  facet normal 0.515554 -0.856857 0
    outer loop
      vertex 0.0168356 -0.0248307 0.03
      vertex 0.0140523 -0.0265054 0.03
      vertex 0.0168356 -0.0248307 -0.03
    endloop
  endfacet
  facet normal 0.515554 -0.856857 0
    outer loop
      vertex 0.0168356 -0.0248307 -0.03
      vertex 0.0140523 -0.0265054 0.03
      vertex 0.0140523 -0.0265054 -0.03
    endloop
  endfacet
  facet normal 0.419889 -0.907576 0
    outer loop
      vertex 0.0140523 -0.0265054 0.03
      vertex 0.0111041 -0.0278693 0.03
      vertex 0.0140523 -0.0265054 -0.03
    endloop
  endfacet
  facet normal 0.419889 -0.907576 0
    outer loop
      vertex 0.0140523 -0.0265054 -0.03
      vertex 0.0111041 -0.0278693 0.03
      vertex 0.0111041 -0.0278693 -0.03
    endloop
  endfacet
  facet normal 0.319302 -0.947653 0
    outer loop
      vertex 0.0111041 -0.0278693 0.03
      vertex 0.00802585 -0.0289065 0.03
      vertex 0.0111041 -0.0278693 -0.03
    endloop
  endfacet
  facet normal 0.319302 -0.947653 0
    outer loop
      vertex 0.0111041 -0.0278693 -0.03
      vertex 0.00802585 -0.0289065 0.03
      vertex 0.00802585 -0.0289065 -0.03
    endloop
  endfacet
  facet normal 0.214971 -0.976621 0
    outer loop
      vertex 0.00802585 -0.0289065 0.03
      vertex 0.00485346 -0.0296048 0.03
      vertex 0.00802585 -0.0289065 -0.03
    endloop
  endfacet
  facet normal 0.214971 -0.976621 0
    outer loop
      vertex 0.00802585 -0.0289065 -0.03
      vertex 0.00485346 -0.0296048 0.03
      vertex 0.00485346 -0.0296048 -0.03
    endloop
  endfacet
  facet normal 0.108119 -0.994138 0
    outer loop
      vertex 0.00485346 -0.0296048 0.03
      vertex 0.00162417 -0.029956 0.03
      vertex 0.00485346 -0.0296048 -0.03
    endloop
  endfacet
  facet normal 0.108119 -0.994138 0
    outer loop
      vertex 0.00485346 -0.0296048 -0.03
      vertex 0.00162417 -0.029956 0.03
      vertex 0.00162417 -0.029956 -0.03
    endloop
  endfacet
  facet normal 0 -1 0
    outer loop
      vertex 0.00162417 -0.029956 0.03
      vertex -0.00162417 -0.029956 0.03
      vertex 0.00162417 -0.029956 -0.03
    endloop
  endfacet
  facet normal 0 -1 0
    outer loop
      vertex 0.00162417 -0.029956 -0.03
      vertex -0.00162417 -0.029956 0.03
      vertex -0.00162417 -0.029956 -0.03
    endloop
  endfacet
  facet normal -0.108119 -0.994138 0
    outer loop
      vertex -0.00162417 -0.029956 0.03
      vertex -0.00485346 -0.0296048 0.03
      vertex -0.00162417 -0.029956 -0.03
    endloop
  endfacet
  facet normal -0.108119 -0.994138 0
    outer loop
      vertex -0.00162417 -0.029956 -0.03
      vertex -0.00485346 -0.0296048 0.03
      vertex -0.00485346 -0.0296048 -0.03
    endloop
  endfacet
  facet normal -0.214971 -0.976621 0
    outer loop
      vertex -0.00485346 -0.0296048 0.03
      vertex -0.00802585 -0.0289065 0.03
      vertex -0.00485346 -0.0296048 -0.03
    endloop
  endfacet
  facet normal -0.214971 -0.976621 0
    outer loop
      vertex -0.00485346 -0.0296048 -0.03
      vertex -0.00802585 -0.0289065 0.03
      vertex -0.00802585 -0.0289065 -0.03
    endloop
  endfacet
  facet normal -0.319302 -0.947653 0
    outer loop
      vertex -0.00802585 -0.0289065 0.03
      vertex -0.0111041 -0.0278693 0.03
      vertex -0.00802585 -0.0289065 -0.03
    endloop
  endfacet
  facet normal -0.319302 -0.947653 0
    outer loop
      vertex -0.00802585 -0.0289065 -0.03
      vertex -0.0111041 -0.0278693 0.03
      vertex -0.0111041 -0.0278693 -0.03
    endloop
  endfacet
  facet normal -0.419889 -0.907576 0
    outer loop
      vertex -0.0111041 -0.0278693 0.03
      vertex -0.0140523 -0.0265054 0.03
      vertex -0.0111041 -0.0278693 -0.03
    endloop
  endfacet
  facet normal -0.419889 -0.907576 0
    outer loop
      vertex -0.0111041 -0.0278693 -0.03
      vertex -0.0140523 -0.0265054 0.03
      vertex -0.0140523 -0.0265054 -0.03
    endloop
  endfacet
  facet normal -0.515554 -0.856857 0
    outer loop
      vertex -0.0140523 -0.0265054 0.03
      vertex -0.0168356 -0.0248307 0.03
      vertex -0.0140523 -0.0265054 -0.03
    endloop
  endfacet
  facet normal -0.515554 -0.856857 0
    outer loop
      vertex -0.0140523 -0.0265054 -0.03
      vertex -0.0168356 -0.0248307 0.03
      vertex -0.0168356 -0.0248307 -0.03
    endloop
  endfacet
  facet normal -0.605174 -0.796093 0
    outer loop
      vertex -0.0168356 -0.0248307 0.03
      vertex -0.0194216 -0.0228649 0.03
      vertex -0.0168356 -0.0248307 -0.03
    endloop
  endfacet
  facet normal -0.605174 -0.796093 0
    outer loop
      vertex -0.0168356 -0.0248307 -0.03
      vertex -0.0194216 -0.0228649 0.03
      vertex -0.0194216 -0.0228649 -0.03
    endloop
  endfacet
  facet normal -0.687699 -0.725996 0
    outer loop
      vertex -0.0194216 -0.0228649 0.03
      vertex -0.0217799 -0.020631 0.03
      vertex -0.0194216 -0.0228649 -0.03
    endloop
  endfacet
  facet normal -0.687699 -0.725996 0
    outer loop
      vertex -0.0194216 -0.0228649 -0.03
      vertex -0.0217799 -0.020631 0.03
      vertex -0.0217799 -0.020631 -0.03
    endloop
  endfacet
  facet normal -0.762162 -0.647386 0
    outer loop
      vertex -0.0217799 -0.020631 0.03
      vertex -0.0238828 -0.0181552 0.03
      vertex -0.0217799 -0.020631 -0.03
    endloop
  endfacet
  facet normal -0.762162 -0.647386 0
    outer loop
      vertex -0.0217799 -0.020631 -0.03
      vertex -0.0238828 -0.0181552 0.03
      vertex -0.0238828 -0.0181552 -0.03
    endloop
  endfacet
  facet normal -0.827689 -0.561187 0
    outer loop
      vertex -0.0238828 -0.0181552 0.03
      vertex -0.0257057 -0.0154666 0.03
      vertex -0.0238828 -0.0181552 -0.03
    endloop
  endfacet
  facet normal -0.827689 -0.561187 0
    outer loop
      vertex -0.0238828 -0.0181552 -0.03
      vertex -0.0257057 -0.0154666 0.03
      vertex -0.0257057 -0.0154666 -0.03
    endloop
  endfacet
  facet normal -0.883512 -0.468408 0
    outer loop
      vertex -0.0257057 -0.0154666 0.03
      vertex -0.0272273 -0.0125967 0.03
      vertex -0.0257057 -0.0154666 -0.03
    endloop
  endfacet
  facet normal -0.883512 -0.468408 0
    outer loop
      vertex -0.0257057 -0.0154666 -0.03
      vertex -0.0272273 -0.0125967 0.03
      vertex -0.0272273 -0.0125967 -0.03
    endloop
  endfacet
  facet normal -0.928977 -0.370138 0
    outer loop
      vertex -0.0272273 -0.0125967 0.03
      vertex -0.0284296 -0.00957905 0.03
      vertex -0.0272273 -0.0125967 -0.03
    endloop
  endfacet
  facet normal -0.928977 -0.370138 0
    outer loop
      vertex -0.0272273 -0.0125967 -0.03
      vertex -0.0284296 -0.00957905 0.03
      vertex -0.0284296 -0.00957905 -0.03
    endloop
  endfacet
  facet normal -0.96355 -0.267528 0
    outer loop
      vertex -0.0284296 -0.00957905 0.03
      vertex -0.0292986 -0.00644911 0.03
      vertex -0.0284296 -0.00957905 -0.03
    endloop
  endfacet
  facet normal -0.96355 -0.267528 0
    outer loop
      vertex -0.0284296 -0.00957905 -0.03
      vertex -0.0292986 -0.00644911 0.03
      vertex -0.0292986 -0.00644911 -0.03
    endloop
  endfacet
  facet normal -0.986826 -0.161782 0
    outer loop
      vertex -0.0292986 -0.00644911 0.03
      vertex -0.0298241 -0.00324357 0.03
      vertex -0.0292986 -0.00644911 -0.03
    endloop
  endfacet
  facet normal -0.986826 -0.161782 0
    outer loop
      vertex -0.0292986 -0.00644911 -0.03
      vertex -0.0298241 -0.00324357 0.03
      vertex -0.0298241 -0.00324357 -0.03
    endloop
  endfacet
  facet normal -0.998533 -0.0541384 0
    outer loop
      vertex -0.0298241 -0.00324357 0.03
      vertex -0.03 1.83697e-18 0.03
      vertex -0.0298241 -0.00324357 -0.03
    endloop
  endfacet
  facet normal -0.998533 -0.0541384 0
    outer loop
      vertex -0.0298241 -0.00324357 -0.03
      vertex -0.03 1.83697e-18 0.03
      vertex -0.03 1.83697e-18 -0.03
    endloop
  endfacet
  facet normal -0.998533 0.0541384 0
    outer loop
      vertex -0.03 1.83697e-18 0.03
      vertex -0.0298241 0.00324357 0.03
      vertex -0.03 1.83697e-18 -0.03
    endloop
  endfacet
  facet normal 0 0 1
    outer loop
      vertex -0.00841781 -0.0124153 0.03
      vertex -0.0168356 -0.0248307 0.03
      vertex -0.00702613 -0.0132527 0.03
    endloop
  endfacet
  facet normal 0 0 1
    outer loop
      vertex -0.0168356 -0.0248307 0.03
      vertex -0.0140523 -0.0265054 0.03
      vertex -0.00702613 -0.0132527 0.03
    endloop
  endfacet
  facet normal 0 0 1
    outer loop
      vertex -0.00702613 -0.0132527 0.03
      vertex -0.0140523 -0.0265054 0.03
      vertex -0.00555207 -0.0139347 0.03
    endloop
  endfacet
  facet normal 0 0 1
    outer loop
      vertex -0.0140523 -0.0265054 0.03
      vertex -0.0111041 -0.0278693 0.03
      vertex -0.00555207 -0.0139347 0.03
    endloop
  endfacet
  facet normal 0 0 1
    outer loop
      vertex -0.00555207 -0.0139347 0.03
      vertex -0.0111041 -0.0278693 0.03
      vertex -0.00401293 -0.0144532 0.03
    endloop
  endfacet
  facet normal 0 0 1
    outer loop
      vertex -0.0111041 -0.0278693 0.03
      vertex -0.00802585 -0.0289065 0.03
      vertex -0.00401293 -0.0144532 0.03
    endloop
  endfacet
  facet normal 0 0 1
    outer loop
      vertex -0.00401293 -0.0144532 0.03
      vertex -0.00802585 -0.0289065 0.03
      vertex -0.00242673 -0.0148024 0.03
    endloop
  endfacet
  facet normal 0 0 1
    outer loop
      vertex -0.00802585 -0.0289065 0.03
      vertex -0.00485346 -0.0296048 0.03
      vertex -0.00242673 -0.0148024 0.03
    endloop
  endfacet
  facet normal 0 0 1
    outer loop
      vertex -0.00242673 -0.0148024 0.03
      vertex -0.00485346 -0.0296048 0.03
      vertex -0.000812084 -0.014978 0.03
    endloop
  endfacet
  facet normal 0 0 1
    outer loop
      vertex -0.00485346 -0.0296048 0.03
      vertex -0.00162417 -0.029956 0.03
      vertex -0.000812084 -0.014978 0.03
    endloop
  endfacet
  facet normal 0 0 1
    outer loop
      vertex -0.000812084 -0.014978 0.03
      vertex -0.00162417 -0.029956 0.03
      vertex 0.000812084 -0.014978 0.03
    endloop
  endfacet
  facet normal 0 0 1
    outer loop
      vertex -0.00162417 -0.029956 0.03
      vertex 0.00162417 -0.029956 0.03
      vertex 0.000812084 -0.014978 0.03
    endloop
  endfacet
  facet normal 0 0 1
    outer loop
      vertex 0.000812084 -0.014978 0.03
      vertex 0.00162417 -0.029956 0.03
      vertex 0.00242673 -0.0148024 0.03
    endloop
  endfacet
  facet normal 0 0 1
    outer loop
      vertex 0.00162417 -0.029956 0.03
      vertex 0.00485346 -0.0296048 0.03
      vertex 0.00242673 -0.0148024 0.03
    endloop
  endfacet
  facet normal 0 0 1
    outer loop
      vertex 0.00242673 -0.0148024 0.03
      vertex 0.00485346 -0.0296048 0.03
      vertex 0.00401293 -0.0144532 0.03
    endloop
  endfacet
  facet normal 0 0 1
    outer loop
      vertex 0.00485346 -0.0296048 0.03
      vertex 0.00802585 -0.0289065 0.03
      vertex 0.00401293 -0.0144532 0.03
    endloop
  endfacet
  facet normal 0 0 1
    outer loop
      vertex 0.00401293 -0.0144532 0.03
      vertex 0.00802585 -0.0289065 0.03
      vertex 0.00555207 -0.0139347 0.03
    endloop
  endfacet
  facet normal 0 0 1
    outer loop
      vertex 0.00802585 -0.0289065 0.03
      vertex 0.0111041 -0.0278693 0.03
      vertex 0.00555207 -0.0139347 0.03
    endloop
  endfacet
  facet normal 0 0 1
    outer loop
      vertex 0.00555207 -0.0139347 0.03
      vertex 0.0111041 -0.0278693 0.03
      vertex 0.00702613 -0.0132527 0.03
    endloop
  endfacet
  facet normal 0 0 1
    outer loop
      vertex 0.0111041 -0.0278693 0.03
      vertex 0.0140523 -0.0265054 0.03
      vertex 0.00702613 -0.0132527 0.03
    endloop
  endfacet
  facet normal 0 0 1
    outer loop
      vertex 0.00702613 -0.0132527 0.03
      vertex 0.0140523 -0.0265054 0.03
      vertex 0.00841781 -0.0124153 0.03
    endloop
  endfacet
  facet normal 0 0 1
    outer loop
      vertex 0.0140523 -0.0265054 0.03
      vertex 0.0168356 -0.0248307 0.03
      vertex 0.00841781 -0.0124153 0.03
    endloop
  endfacet
  facet normal 0 0 1
    outer loop
      vertex 0.00841781 -0.0124153 0.03
      vertex 0.0168356 -0.0248307 0.03
      vertex 0.00971079 -0.0114324 0.03
    endloop
  endfacet
  facet normal 0 0 1
    outer loop
      vertex 0.0168356 -0.0248307 0.03
      vertex 0.0194216 -0.0228649 0.03
      vertex 0.00971079 -0.0114324 0.03
    endloop
  endfacet
  facet normal 0 0 1
    outer loop
      vertex 0.00971079 -0.0114324 0.03
      vertex 0.0194216 -0.0228649 0.03
      vertex 0.0108899 -0.0103155 0.03
    endloop
  endfacet
  facet normal 0 0 1
    outer loop
      vertex 0.0194216 -0.0228649 0.03
      vertex 0.0217799 -0.020631 0.03
      vertex 0.0108899 -0.0103155 0.03
    endloop
  endfacet
  facet normal 0 0 1
    outer loop
      vertex 0.0108899 -0.0103155 0.03
      vertex 0.0217799 -0.020631 0.03
      vertex 0.0119414 -0.00907761 0.03
    endloop
  endfacet
  facet normal 0 0 1
    outer loop
      vertex 0.0217799 -0.020631 0.03
      vertex 0.0238828 -0.0181552 0.03
      vertex 0.0119414 -0.00907761 0.03
    endloop
  endfacet
  facet normal 0 0 1
    outer loop
      vertex 0.0119414 -0.00907761 0.03
      vertex 0.0238828 -0.0181552 0.03
      vertex 0.0128529 -0.00773331 0.03
    endloop
  endfacet
  facet normal 0 0 1
    outer loop
      vertex 0.0238828 -0.0181552 0.03
      vertex 0.0257057 -0.0154666 0.03
      vertex 0.0128529 -0.00773331 0.03
    endloop
  endfacet
  facet normal 0 0 1
    outer loop
      vertex 0.0128529 -0.00773331 0.03
      vertex 0.0257057 -0.0154666 0.03
      vertex 0.0136136 -0.00629834 0.03
    endloop
  endfacet
  facet normal 0 0 1
    outer loop
      vertex 0.0257057 -0.0154666 0.03
      vertex 0.0272273 -0.0125967 0.03
      vertex 0.0136136 -0.00629834 0.03
    endloop
  endfacet
  facet normal 0 0 1
    outer loop
      vertex 0.0136136 -0.00629834 0.03
      vertex 0.0272273 -0.0125967 0.03
      vertex 0.0142148 -0.00478952 0.03
    endloop
  endfacet
  facet normal 0 0 1
    outer loop
      vertex 0.0272273 -0.0125967 0.03
      vertex 0.0284296 -0.00957905 0.03
      vertex 0.0142148 -0.00478952 0.03
    endloop
  endfacet
  facet normal 0 0 1
    outer loop
      vertex 0.0142148 -0.00478952 0.03
      vertex 0.0284296 -0.00957905 0.03
      vertex 0.0146493 -0.00322456 0.03
    endloop
  endfacet
  facet normal 0 0 1
    outer loop
      vertex 0.0284296 -0.00957905 0.03
      vertex 0.0292986 -0.00644911 0.03
      vertex 0.0146493 -0.00322456 0.03
    endloop
  endfacet
  facet normal 0 0 1
    outer loop
      vertex 0.0146493 -0.00322456 0.03
      vertex 0.0292986 -0.00644911 0.03
      vertex 0.0149121 -0.00162179 0.03
    endloop
  endfacet
  facet normal 0 0 1
    outer loop
      vertex 0.0292986 -0.00644911 0.03
      vertex 0.0298241 -0.00324357 0.03
      vertex 0.0149121 -0.00162179 0.03
    endloop
  endfacet
  facet normal 0 0 1
    outer loop
      vertex 0.0149121 -0.00162179 0.03
      vertex 0.0298241 -0.00324357 0.03
      vertex 0.015 -2.75546e-18 0.03
    endloop
  endfacet
  facet normal 0 0 1
    outer loop
      vertex 0.0298241 -0.00324357 0.03
      vertex 0.03 1.28588e-17 0.03
      vertex 0.015 -2.75546e-18 0.03
    endloop
  endfacet
  facet normal 0 0 1
    outer loop
      vertex 0.015 -2.75546e-18 0.03
      vertex 0.03 1.28588e-17 0.03
      vertex 0.0149121 0.00162179 0.03
    endloop
  endfacet
  facet normal 0 0 1
    outer loop
      vertex 0.03 1.28588e-17 0.03
      vertex 0.0298241 0.00324357 0.03
      vertex 0.0149121 0.00162179 0.03
    endloop
  endfacet
  facet normal 0 0 1
    outer loop
      vertex 0.0149121 0.00162179 0.03
      vertex 0.0298241 0.00324357 0.03
      vertex 0.0146493 0.00322456 0.03
    endloop
  endfacet
  facet normal 0 0 1
    outer loop
      vertex 0.0298241 0.00324357 0.03
      vertex 0.0292986 0.00644911 0.03
      vertex 0.0146493 0.00322456 0.03
    endloop
  endfacet
  facet normal 0 0 1
    outer loop
      vertex 0.0146493 0.00322456 0.03
      vertex 0.0292986 0.00644911 0.03
      vertex 0.0142148 0.00478952 0.03
    endloop
  endfacet
  facet normal 0 0 1
    outer loop
      vertex 0.0292986 0.00644911 0.03
      vertex 0.0284296 0.00957905 0.03
      vertex 0.0142148 0.00478952 0.03
    endloop
  endfacet
  facet normal 0 0 1
    outer loop
      vertex 0.0142148 0.00478952 0.03
      vertex 0.0284296 0.00957905 0.03
      vertex 0.0136136 0.00629834 0.03
    endloop
  endfacet
  facet normal 0 0 1
    outer loop
      vertex 0.0284296 0.00957905 0.03
      vertex 0.0272273 0.0125967 0.03
      vertex 0.0136136 0.00629834 0.03
    endloop
  endfacet
  facet normal 0 0 1
    outer loop
      vertex 0.0136136 0.00629834 0.03
      vertex 0.0272273 0.0125967 0.03
      vertex 0.0128529 0.00773331 0.03
    endloop
  endfacet
  facet normal 0 0 1
    outer loop
      vertex 0.0272273 0.0125967 0.03
      vertex 0.0257057 0.0154666 0.03
      vertex 0.0128529 0.00773331 0.03
    endloop
  endfacet
  facet normal 0 0 1
    outer loop
      vertex 0.0128529 0.00773331 0.03
      vertex 0.0257057 0.0154666 0.03
      vertex 0.0119414 0.00907761 0.03
    endloop
  endfacet
  facet normal 0 0 1
    outer loop
      vertex 0.0257057 0.0154666 0.03
      vertex 0.0238828 0.0181552 0.03
      vertex 0.0119414 0.00907761 0.03
    endloop
  endfacet
  facet normal 0 0 1
    outer loop
      vertex 0.0119414 0.00907761 0.03
      vertex 0.0238828 0.0181552 0.03
      vertex 0.0108899 0.0103155 0.03
    endloop
  endfacet
  facet normal 0 0 1
    outer loop
      vertex 0.0238828 0.0181552 0.03
      vertex 0.0217799 0.020631 0.03
      vertex 0.0108899 0.0103155 0.03
    endloop
  endfacet
  facet normal 0 0 1
    outer loop
      vertex 0.0108899 0.0103155 0.03
      vertex 0.0217799 0.020631 0.03
      vertex 0.00971079 0.0114324 0.03
    endloop
  endfacet
  facet normal 0 0 1
    outer loop
      vertex 0.0217799 0.020631 0.03
      vertex 0.0194216 0.0228649 0.03
      vertex 0.00971079 0.0114324 0.03
    endloop
  endfacet
  facet normal 0 0 1
    outer loop
      vertex 0.00971079 0.0114324 0.03
      vertex 0.0194216 0.0228649 0.03
      vertex 0.00841781 0.0124153 0.03
    endloop
  endfacet
  facet normal 0 0 1
    outer loop
      vertex 0.0194216 0.0228649 0.03
      vertex 0.0168356 0.0248307 0.03
      vertex 0.00841781 0.0124153 0.03
    endloop
  endfacet
  facet normal 0 0 1
    outer loop
      vertex 0.00841781 0.0124153 0.03
      vertex 0.0168356 0.0248307 0.03
      vertex 0.00702613 0.0132527 0.03
    endloop
  endfacet
  facet normal 0 0 1
    outer loop
      vertex 0.0168356 0.0248307 0.03
      vertex 0.0140523 0.0265054 0.03
      vertex 0.00702613 0.0132527 0.03
    endloop
  endfacet
  facet normal 0 0 1
    outer loop
      vertex 0.00702613 0.0132527 0.03
      vertex 0.0140523 0.0265054 0.03
      vertex 0.00555207 0.0139347 0.03
    endloop
  endfacet
  facet normal 0 0 1
    outer loop
      vertex 0.0140523 0.0265054 0.03
      vertex 0.0111041 0.0278693 0.03
      vertex 0.00555207 0.0139347 0.03
    endloop
  endfacet
  facet normal 0 0 1
    outer loop
      vertex 0.00555207 0.0139347 0.03
      vertex 0.0111041 0.0278693 0.03
      vertex 0.00401293 0.0144532 0.03
    endloop
  endfacet
  facet normal 0 0 1
    outer loop
      vertex 0.0111041 0.0278693 0.03
      vertex 0.00802585 0.0289065 0.03
      vertex 0.00401293 0.0144532 0.03
    endloop
  endfacet
  facet normal 0 0 1
    outer loop
      vertex 0.00401293 0.0144532 0.03
      vertex 0.00802585 0.0289065 0.03
      vertex 0.00242673 0.0148024 0.03
    endloop
  endfacet
  facet normal 0 0 1
    outer loop
      vertex 0.00802585 0.0289065 0.03
      vertex 0.00485346 0.0296048 0.03
      vertex 0.00242673 0.0148024 0.03
    endloop
  endfacet
  facet normal 0 0 1
    outer loop
      vertex 0.00242673 0.0148024 0.03
      vertex 0.00485346 0.0296048 0.03
      vertex 0.000812084 0.014978 0.03
    endloop
  endfacet
  facet normal 0 0 1
    outer loop
      vertex 0.00485346 0.0296048 0.03
      vertex 0.00162417 0.029956 0.03
      vertex 0.000812084 0.014978 0.03
    endloop
  endfacet
  facet normal 0 0 1
    outer loop
      vertex 0.000812084 0.014978 0.03
      vertex 0.00162417 0.029956 0.03
      vertex -0.000812084 0.014978 0.03
    endloop
  endfacet
  facet normal 0 0 1
    outer loop
      vertex 0.00162417 0.029956 0.03
      vertex -0.00162417 0.029956 0.03
      vertex -0.000812084 0.014978 0.03
    endloop
  endfacet
  facet normal 0 0 1
    outer loop
      vertex -0.000812084 0.014978 0.03
      vertex -0.00162417 0.029956 0.03
      vertex -0.00242673 0.0148024 0.03
    endloop
  endfacet
  facet normal 0 0 1
    outer loop
      vertex -0.00162417 0.029956 0.03
      vertex -0.00485346 0.0296048 0.03
      vertex -0.00242673 0.0148024 0.03
    endloop
  endfacet
  facet normal 0 0 1
    outer loop
      vertex -0.00242673 0.0148024 0.03
      vertex -0.00485346 0.0296048 0.03
      vertex -0.00401293 0.0144532 0.03
    endloop
  endfacet
  facet normal 0 0 1
    outer loop
      vertex -0.00485346 0.0296048 0.03
      vertex -0.00802585 0.0289065 0.03
      vertex -0.00401293 0.0144532 0.03
    endloop
  endfacet
  facet normal 0 0 1
    outer loop
      vertex -0.00401293 0.0144532 0.03
      vertex -0.00802585 0.0289065 0.03
      vertex -0.00555207 0.0139347 0.03
    endloop
  endfacet
  facet normal 0 0 1
    outer loop
      vertex -0.00802585 0.0289065 0.03
      vertex -0.0111041 0.0278693 0.03
      vertex -0.00555207 0.0139347 0.03
    endloop
  endfacet
  facet normal 0 0 1
    outer loop
      vertex -0.00555207 0.0139347 0.03
      vertex -0.0111041 0.0278693 0.03
      vertex -0.00702613 0.0132527 0.03
    endloop
  endfacet
  facet normal 0 0 1
    outer loop
      vertex -0.0111041 0.0278693 0.03
      vertex -0.0140523 0.0265054 0.03
      vertex -0.00702613 0.0132527 0.03
    endloop
  endfacet
  facet normal 0 0 1
    outer loop
      vertex -0.00702613 0.0132527 0.03
      vertex -0.0140523 0.0265054 0.03
      vertex -0.00841781 0.0124153 0.03
    endloop
  endfacet
  facet normal 0 0 1
    outer loop
      vertex -0.0140523 0.0265054 0.03
      vertex -0.0168356 0.0248307 0.03
      vertex -0.00841781 0.0124153 0.03
    endloop
  endfacet
  facet normal 0 0 1
    outer loop
      vertex -0.00841781 0.0124153 0.03
      vertex -0.0168356 0.0248307 0.03
      vertex -0.00971079 0.0114324 0.03
    endloop
  endfacet
  facet normal 0 0 1
    outer loop
      vertex -0.0168356 0.0248307 0.03
      vertex -0.0194216 0.0228649 0.03
      vertex -0.00971079 0.0114324 0.03
    endloop
  endfacet
  facet normal 0 0 1
    outer loop
      vertex -0.00971079 0.0114324 0.03
      vertex -0.0194216 0.0228649 0.03
      vertex -0.0108899 0.0103155 0.03
    endloop
  endfacet
  facet normal 0 0 1
    outer loop
      vertex -0.0194216 0.0228649 0.03
      vertex -0.0217799 0.020631 0.03
      vertex -0.0108899 0.0103155 0.03
    endloop
  endfacet
  facet normal 0 0 1
    outer loop
      vertex -0.0108899 0.0103155 0.03
      vertex -0.0217799 0.020631 0.03
      vertex -0.0119414 0.00907761 0.03
    endloop
  endfacet
  facet normal 0 0 1
    outer loop
      vertex -0.0217799 0.020631 0.03
      vertex -0.0238828 0.0181552 0.03
      vertex -0.0119414 0.00907761 0.03
    endloop
  endfacet
  facet normal 0 0 1
    outer loop
      vertex -0.0119414 0.00907761 0.03
      vertex -0.0238828 0.0181552 0.03
      vertex -0.0128529 0.00773331 0.03
    endloop
  endfacet
  facet normal 0 0 1
    outer loop
      vertex -0.0238828 0.0181552 0.03
      vertex -0.0257057 0.0154666 0.03
      vertex -0.0128529 0.00773331 0.03
    endloop
  endfacet
  facet normal 0 0 1
    outer loop
      vertex -0.0128529 0.00773331 0.03
      vertex -0.0257057 0.0154666 0.03
      vertex -0.0136136 0.00629834 0.03
    endloop
  endfacet
  facet normal 0 0 1
    outer loop
      vertex -0.0257057 0.0154666 0.03
      vertex -0.0272273 0.0125967 0.03
      vertex -0.0136136 0.00629834 0.03
    endloop
  endfacet
  facet normal 0 0 1
    outer loop
      vertex -0.0136136 0.00629834 0.03
      vertex -0.0272273 0.0125967 0.03
      vertex -0.0142148 0.00478952 0.03
    endloop
  endfacet
  facet normal 0 0 1
    outer loop
      vertex -0.0272273 0.0125967 0.03
      vertex -0.0284296 0.00957905 0.03
      vertex -0.0142148 0.00478952 0.03
    endloop
  endfacet
  facet normal 0 0 1
    outer loop
      vertex -0.0142148 0.00478952 0.03
      vertex -0.0284296 0.00957905 0.03
      vertex -0.0146493 0.00322456 0.03
    endloop
  endfacet
  facet normal 0 0 1
    outer loop
      vertex -0.0284296 0.00957905 0.03
      vertex -0.0292986 0.00644911 0.03
      vertex -0.0146493 0.00322456 0.03
    endloop
  endfacet
  facet normal 0 0 1
    outer loop
      vertex -0.0146493 0.00322456 0.03
      vertex -0.0292986 0.00644911 0.03
      vertex -0.0149121 0.00162179 0.03
    endloop
  endfacet
  facet normal 0 0 1
    outer loop
      vertex -0.0292986 0.00644911 0.03
      vertex -0.0298241 0.00324357 0.03
      vertex -0.0149121 0.00162179 0.03
    endloop
  endfacet
  facet normal 0 0 1
    outer loop
      vertex -0.0149121 0.00162179 0.03
      vertex -0.0298241 0.00324357 0.03
      vertex -0.015 2.75546e-18 0.03
    endloop
  endfacet
  facet normal 0 0 1
    outer loop
      vertex -0.0298241 0.00324357 0.03
      vertex -0.03 1.83697e-18 0.03
      vertex -0.015 2.75546e-18 0.03
    endloop
  endfacet
  facet normal 0 0 1
    outer loop
      vertex -0.015 2.75546e-18 0.03
      vertex -0.03 1.83697e-18 0.03
      vertex -0.0149121 -0.00162179 0.03
    endloop
  endfacet
  facet normal 0 0 1
    outer loop
      vertex -0.03 1.83697e-18 0.03
      vertex -0.0298241 -0.00324357 0.03
      vertex -0.0149121 -0.00162179 0.03
    endloop
  endfacet
  facet normal 0 0 1
    outer loop
      vertex -0.0149121 -0.00162179 0.03
      vertex -0.0298241 -0.00324357 0.03
      vertex -0.0146493 -0.00322456 0.03
    endloop
  endfacet
  facet normal 0 0 1
    outer loop
      vertex -0.0298241 -0.00324357 0.03
      vertex -0.0292986 -0.00644911 0.03
      vertex -0.0146493 -0.00322456 0.03
    endloop
  endfacet
  facet normal 0 0 1
    outer loop
      vertex -0.0146493 -0.00322456 0.03
      vertex -0.0292986 -0.00644911 0.03
      vertex -0.0142148 -0.00478952 0.03
    endloop
  endfacet
  facet normal 0 0 1
    outer loop
      vertex -0.0292986 -0.00644911 0.03
      vertex -0.0284296 -0.00957905 0.03
      vertex -0.0142148 -0.00478952 0.03
    endloop
  endfacet
  facet normal 0 0 1
    outer loop
      vertex -0.0142148 -0.00478952 0.03
      vertex -0.0284296 -0.00957905 0.03
      vertex -0.0136136 -0.00629834 0.03
    endloop
  endfacet
  facet normal 0 0 1
    outer loop
      vertex -0.0284296 -0.00957905 0.03
      vertex -0.0272273 -0.0125967 0.03
      vertex -0.0136136 -0.00629834 0.03
    endloop
  endfacet
  facet normal 0 0 1
    outer loop
      vertex -0.0136136 -0.00629834 0.03
      vertex -0.0272273 -0.0125967 0.03
      vertex -0.0128529 -0.00773331 0.03
    endloop
  endfacet
  facet normal 0 0 1
    outer loop
      vertex -0.0272273 -0.0125967 0.03
      vertex -0.0257057 -0.0154666 0.03
      vertex -0.0128529 -0.00773331 0.03
    endloop
  endfacet
  facet normal 0 0 1
    outer loop
      vertex -0.0128529 -0.00773331 0.03
      vertex -0.0257057 -0.0154666 0.03
      vertex -0.0119414 -0.00907761 0.03
    endloop
  endfacet
  facet normal 0 0 1
    outer loop
      vertex -0.0257057 -0.0154666 0.03
      vertex -0.0238828 -0.0181552 0.03
      vertex -0.0119414 -0.00907761 0.03
    endloop
  endfacet
  facet normal 0 0 1
    outer loop
      vertex -0.0119414 -0.00907761 0.03
      vertex -0.0238828 -0.0181552 0.03
      vertex -0.0108899 -0.0103155 0.03
    endloop
  endfacet
  facet normal 0 0 1
    outer loop
      vertex -0.0238828 -0.0181552 0.03
      vertex -0.0217799 -0.020631 0.03
      vertex -0.0108899 -0.0103155 0.03
    endloop
  endfacet
  facet normal 0 0 1
    outer loop
      vertex -0.0108899 -0.0103155 0.03
      vertex -0.0217799 -0.020631 0.03
      vertex -0.00971079 -0.0114324 0.03
    endloop
  endfacet
  facet normal 0 0 1
    outer loop
      vertex -0.0217799 -0.020631 0.03
      vertex -0.0194216 -0.0228649 0.03
      vertex -0.00971079 -0.0114324 0.03
    endloop
  endfacet
  facet normal 0 0 1
    outer loop
      vertex -0.00971079 -0.0114324 0.03
      vertex -0.0194216 -0.0228649 0.03
      vertex -0.00841781 -0.0124153 0.03
    endloop
  endfacet
  facet normal 0 0 1
    outer loop
      vertex -0.0194216 -0.0228649 0.03
      vertex -0.0168356 -0.0248307 0.03
      vertex -0.00841781 -0.0124153 0.03
    endloop
  endfacet
endsolid Mesh
